<?xml version="1.0" encoding="UTF-8"?>
<svg version="1.1" xmlns="http://www.w3.org/2000/svg" width="831" height="451">
<path d="M0 0 C274.23 0 548.46 0 831 0 C831 148.83 831 297.66 831 451 C556.77 451 282.54 451 0 451 C0 302.17 0 153.34 0 0 Z " fill="#FEFEFE" transform="translate(0,0)"/>
<path d="M0 0 C4.85999132 1.98148406 9.40777824 4.47685793 14 7 C15.62728933 7.88209147 17.25491192 8.76356835 18.8828125 9.64453125 C22.58091307 11.6517285 26.27245462 13.67050074 29.9609375 15.6953125 C36.24779224 19.14267664 42.5594127 22.54313051 48.875 25.9375 C57.25744284 30.44470167 65.63360408 34.96307828 74 39.5 C80.14188622 42.83027395 86.28594003 46.15637156 92.4375 49.46875 C93.5193457 50.05140625 94.60119141 50.6340625 95.71582031 51.234375 C97.89082931 52.40369295 100.06724587 53.57039683 102.24511719 54.734375 C107.79214442 57.70438415 113.3008541 60.72463177 118.765625 63.84375 C120.39951172 64.76414063 120.39951172 64.76414063 122.06640625 65.703125 C124.14095984 66.87403868 126.20665158 68.06083854 128.26171875 69.265625 C133.3368763 72.2474867 133.3368763 72.2474867 139.01171875 72.72265625 C139.99785156 72.15417969 140.98398437 71.58570312 142 71 C142.73782715 70.59571777 143.4756543 70.19143555 144.23583984 69.77490234 C147.04371219 68.21343842 149.80227201 66.58166931 152.5625 64.9375 C154.11155029 64.02605225 154.11155029 64.02605225 155.69189453 63.09619141 C161.04740377 59.94331923 166.38983067 56.76866296 171.73014832 53.59016418 C174.31156892 52.05565338 176.89616905 50.52654621 179.48117065 48.99807739 C181.33272773 47.90006827 183.17920255 46.79385425 185.02563477 45.68725586 C197.49960693 38.27050013 206.99812056 34.82069023 221.4375 34.8125 C222.56994141 34.80025391 223.70238281 34.78800781 224.86914062 34.77539062 C226.50979492 34.77249023 226.50979492 34.77249023 228.18359375 34.76953125 C229.17931396 34.76542236 230.17503418 34.76131348 231.20092773 34.75708008 C234.20134831 35.01747419 236.33029101 35.61426179 239 37 C241.35016942 41.59351296 241.37085454 45.08105135 240 50 C228.53941997 73.02893981 203.39686767 85.20205764 182.06103516 97.26074219 C177.74398523 99.71365842 173.46209266 102.22401752 169.1875 104.75 C168.51912109 105.14396973 167.85074219 105.53793945 167.16210938 105.94384766 C165.43996588 106.96012826 163.71988509 107.97990208 162 109 C161.13248108 109.42384979 160.26496216 109.84769958 159.37115479 110.28439331 C156.8084463 111.79716313 156.8084463 111.79716313 156.11981201 114.47659302 C155.94593964 115.92508133 155.94593964 115.92508133 155.76855469 117.40283203 C155.63042358 118.47760803 155.49229248 119.55238403 155.34997559 120.659729 C155.23448364 121.76201843 155.1189917 122.86430786 155 124 C154.88418579 125.00383728 154.76837158 126.00767456 154.64904785 127.04193115 C154.30197624 130.21047649 153.99774006 133.38084798 153.703125 136.5546875 C153.58900269 137.74660706 153.47488037 138.93852661 153.3572998 140.16656494 C153.04860201 143.3976955 152.74355441 146.62914592 152.43992615 149.86075592 C152.1187724 153.2667221 151.79209162 156.67215763 151.46582031 160.07763672 C150.63891621 168.71795445 149.8190729 177.35893691 149 186 C148.11531028 195.33330805 147.22934908 204.66648527 146.33523178 213.99889565 C146.01179271 217.37693385 145.6901202 220.75512034 145.37268066 224.13372803 C145.01785437 227.90462597 144.65786975 231.67500079 144.296875 235.4453125 C144.19499878 236.54280823 144.09312256 237.64030396 143.98815918 238.77105713 C143.47604262 244.06603141 142.87697262 249.3463366 142.12963867 254.61352539 C141.9948259 255.58222061 141.86001312 256.55091583 141.72111511 257.54896545 C140.88935631 260.37607243 140.09353487 261.19966404 137.62890625 262.73828125 C136.29306937 263.31115732 134.93561718 263.83584879 133.5625 264.3125 C132.88123047 264.60060547 132.19996094 264.88871094 131.49804688 265.18554688 C128.12392618 266.54378743 126.52855716 267.17618572 123 266 C122.17553711 263.79907227 122.17553711 263.79907227 121.52734375 260.81640625 C121.27315674 259.68412598 121.01896973 258.5518457 120.75708008 257.38525391 C120.48661865 256.12374512 120.21615723 254.86223633 119.9375 253.5625 C119.63796315 252.21756736 119.33672728 250.87301218 119.03393555 249.52880859 C118.54415462 247.35393398 118.05535125 245.17888495 117.57093811 243.00280762 C115.57119737 234.02309871 113.44377964 225.07423133 111.3125 216.125 C111.1081131 215.26349335 110.9037262 214.40198669 110.69314575 213.51437378 C108.09905039 202.58465101 105.43311878 191.67491402 102.69140625 180.78125 C102.41478653 179.68134735 102.13816681 178.5814447 101.85316467 177.44821167 C100.49620075 172.05868954 99.13229605 166.6710364 97.7590332 161.28564453 C97.2637489 159.32847221 96.76854615 157.37127926 96.2734375 155.4140625 C96.04270035 154.51812378 95.8119632 153.62218506 95.57423401 152.69909668 C95.36588425 151.8723645 95.15753448 151.04563232 94.94287109 150.19384766 C94.6683461 149.11811996 94.6683461 149.11811996 94.38827515 148.0206604 C94 146 94 146 94 142 C90.5591929 143.6180566 87.12308518 145.24588886 83.6875 146.875 C82.74970703 147.31585938 81.81191406 147.75671875 80.84570312 148.2109375 C74.5850661 151.18628975 68.45066682 154.33570972 62.3359375 157.59765625 C54.7413714 161.64223588 47.04169598 165.42195099 39.27734375 169.12890625 C35.95530852 170.73094978 32.63459286 172.33569911 29.31420898 173.94116211 C27.03761335 175.03427697 24.75588136 176.11675026 22.46948242 177.18920898 C19.11943311 178.76448884 15.79143234 180.37978698 12.46484375 182.00390625 C11.44108139 182.47292862 10.41731903 182.94195099 9.36253357 183.42518616 C4.26895396 185.83178577 4.26895396 185.83178577 0.95523071 190.1532135 C0.42681599 192.45657719 0.16500365 194.644942 0 197 C-0.21591797 198.09223877 -0.43183594 199.18447754 -0.65429688 200.30981445 C-0.84056641 201.3174585 -1.02683594 202.32510254 -1.21875 203.36328125 C-1.42886719 204.49830078 -1.63898438 205.63332031 -1.85546875 206.80273438 C-2.17451172 208.54006836 -2.17451172 208.54006836 -2.5 210.3125 C-2.71269531 211.45912109 -2.92539062 212.60574219 -3.14453125 213.78710938 C-3.35464844 214.92599609 -3.56476563 216.06488281 -3.78125 217.23828125 C-3.98854736 218.35847656 -4.19584473 219.47867188 -4.40942383 220.6328125 C-4.8067399 222.89812182 -5.1706379 225.16952017 -5.50268555 227.4453125 C-5.73918823 229.05986328 -5.73918823 229.05986328 -5.98046875 230.70703125 C-6.17612427 232.15106323 -6.17612427 232.15106323 -6.37573242 233.62426758 C-7 236 -7 236 -9.8125 238.375 C-13.61098296 239.11980058 -14.73416803 239.05152302 -18 237 C-19.5645118 234.25609468 -20.47763238 231.3335488 -21.4453125 228.3359375 C-21.89014481 227.03687973 -21.89014481 227.03687973 -22.34396362 225.71157837 C-23.28916436 222.93849299 -24.20749136 220.15735577 -25.125 217.375 C-25.74950952 215.52413378 -26.37579246 213.67386493 -27.00390625 211.82421875 C-27.89351312 209.20272549 -28.78050834 206.58066769 -29.65383911 203.95370483 C-31.32652034 198.92302364 -33.10917564 193.95303746 -35 189 C-37.75799488 190.30258661 -40.1550431 191.74865025 -42.58984375 193.58203125 C-43.28045898 194.09515869 -43.97107422 194.60828613 -44.68261719 195.13696289 C-45.42672852 195.68989014 -46.17083984 196.24281738 -46.9375 196.8125 C-95.91031082 232.60224609 -153.42352028 255.57533428 -212 270 C-213.15097168 270.28359375 -214.30194336 270.5671875 -215.48779297 270.859375 C-232.52504562 274.99138994 -249.61077803 277.82394011 -267 280 C-268.32862061 280.16991455 -268.32862061 280.16991455 -269.68408203 280.34326172 C-286.93176532 282.52376572 -304.18879134 283.21339259 -321.5625 283.1875 C-322.80015106 283.18609512 -322.80015106 283.18609512 -324.06280518 283.18466187 C-369.64589221 283.07336593 -415.26442152 276.34284298 -456 255 C-452.58586491 253.86195497 -451.26351137 254.17358782 -447.80078125 254.92578125 C-446.75470703 255.14556641 -445.70863281 255.36535156 -444.63085938 255.59179688 C-442.98827148 255.94854492 -442.98827148 255.94854492 -441.3125 256.3125 C-431.58291729 258.41927577 -421.88625647 259.91233241 -412 261 C-410.08078735 261.21571655 -410.08078735 261.21571655 -408.12280273 261.43579102 C-386.15007001 263.75955453 -364.19292452 264.30096889 -342.11487961 264.31096649 C-340.04159061 264.31246984 -337.96833197 264.31736038 -335.89505005 264.32281494 C-310.17100584 264.37333804 -284.39116214 263.60761099 -258.9375 259.625 C-257.45361994 259.40159541 -255.96964955 259.17879015 -254.4855957 258.95654297 C-250.31999589 258.32673328 -246.15971426 257.66758238 -242 257 C-240.94490234 256.83242188 -239.88980469 256.66484375 -238.80273438 256.4921875 C-176.82434297 246.46689595 -115.31342624 225.93696326 -59.5625 197.1875 C-58.53809814 196.66043457 -57.51369629 196.13336914 -56.45825195 195.59033203 C-50.37574108 192.40456607 -44.62325348 188.94128643 -39 185 C-40.30717939 182.19450614 -41.75752788 179.8835305 -43.72265625 177.49609375 C-44.52473511 176.51624512 -44.52473511 176.51624512 -45.34301758 175.51660156 C-46.19416138 174.48744629 -46.19416138 174.48744629 -47.0625 173.4375 C-47.64088623 172.72948242 -48.21927246 172.02146484 -48.81518555 171.29199219 C-51.46687994 168.05017552 -54.13644339 164.82678763 -56.859375 161.64453125 C-57.66890625 160.68933594 -58.4784375 159.73414063 -59.3125 158.75 C-60.03050781 157.91984375 -60.74851562 157.0896875 -61.48828125 156.234375 C-63 154 -63 154 -63 150 C-60.21573735 146.86770451 -58.59148304 146.05459104 -54.3972168 145.66748047 C-49.34456406 145.78939762 -45.22609738 147.57489372 -40.64453125 149.5703125 C-38.87048127 150.30868641 -37.09639156 151.04696485 -35.32226562 151.78515625 C-32.55524779 152.95683192 -29.79078277 154.13427937 -27.02758789 155.31494141 C-24.34319846 156.45613341 -21.65076835 157.57640437 -18.95703125 158.6953125 C-18.13298294 159.05561554 -17.30893463 159.41591858 -16.45991516 159.78713989 C-11.95035012 161.71886666 -11.95035012 161.71886666 -7.18212891 161.36352539 C-6.46202637 160.91356201 -5.74192383 160.46359863 -5 160 C-4.35232666 159.60981689 -3.70465332 159.21963379 -3.03735352 158.81762695 C-2.40756592 158.37894287 -1.77777832 157.94025879 -1.12890625 157.48828125 C-0.03703003 156.73393799 -0.03703003 156.73393799 1.0769043 155.96435547 C1.85590088 155.41924316 2.63489746 154.87413086 3.4375 154.3125 C5.14038676 153.13377033 6.84352188 151.9553994 8.546875 150.77734375 C9.43697266 150.15972168 10.32707031 149.54209961 11.24414062 148.90576172 C15.87470681 145.70358245 20.53244724 142.54142425 25.1875 139.375 C32.15560318 134.62769329 39.11472022 129.86778785 46.05932617 125.08618164 C54.3599541 119.37192686 62.68091899 113.68734028 71 108 C60.83366359 96.05411802 49.9890009 84.8775069 38.83007812 73.86694336 C34.2396337 69.31919885 29.78237285 64.73937585 25.58032227 59.82983398 C23.0192014 56.86434644 20.3131711 54.03733158 17.625 51.1875 C12.98133786 46.2250707 8.56377319 41.15393289 4.3125 35.84765625 C1.58398908 32.48771628 -1.23411227 29.21330884 -4.0625 25.9375 C-6.04502141 23.62785785 -8.02322292 21.31455912 -10 19 C-10.83917969 18.01902344 -11.67835938 17.03804687 -12.54296875 16.02734375 C-13.63544922 14.71443359 -13.63544922 14.71443359 -14.75 13.375 C-15.38421875 12.61960937 -16.0184375 11.86421875 -16.671875 11.0859375 C-18 9 -18 9 -18 5 C-6.38114837 -1.66655421 -6.38114837 -1.66655421 0 0 Z " fill="#196FB3" transform="translate(534,15)"/>
<path d="M0 0 C2.171875 1.10546875 2.171875 1.10546875 5.234375 3.10546875 C5.564375 1.78546875 5.894375 0.46546875 6.234375 -0.89453125 C9.204375 -0.89453125 12.174375 -0.89453125 15.234375 -0.89453125 C15.30418273 7.66844532 15.3573413 16.23130106 15.38981152 24.79449272 C15.40540319 28.77162675 15.42652104 32.74856471 15.46069336 36.72558594 C15.49352083 40.57057725 15.51127676 44.41538111 15.51900673 48.26050186 C15.52450861 49.72037833 15.53525135 51.18024567 15.55156517 52.64004135 C15.66560574 63.27702471 15.62381872 73.56836929 7.91015625 81.703125 C1.07192276 87.42556281 -8.26613004 87.74054932 -16.765625 87.10546875 C-21.15111485 86.28823771 -25.45653701 85.25638573 -29.765625 84.10546875 C-29.435625 80.47546875 -29.105625 76.84546875 -28.765625 73.10546875 C-27.28449219 73.34330078 -27.28449219 73.34330078 -25.7734375 73.5859375 C-21.72406912 74.159615 -17.72700345 74.36003333 -13.640625 74.41796875 C-12.95097656 74.44697266 -12.26132812 74.47597656 -11.55078125 74.50585938 C-7.90715803 74.55114341 -5.94413069 74.22071873 -2.85546875 72.2265625 C0.64965941 68.66902121 1.33360483 65.66353083 1.359375 60.79296875 C1.318125 59.57609375 1.276875 58.35921875 1.234375 57.10546875 C0.30625 57.74484375 -0.621875 58.38421875 -1.578125 59.04296875 C-6.91984795 62.49937772 -11.55763709 62.74333726 -17.765625 62.10546875 C-24.00664331 60.38550307 -28.26418849 57.66657379 -31.765625 52.10546875 C-34.4643638 45.29045614 -35.23739071 38.88440046 -35.140625 31.60546875 C-35.15222656 30.73277344 -35.16382813 29.86007812 -35.17578125 28.9609375 C-35.13518949 19.82779255 -33.21637351 10.89953441 -26.765625 4.10546875 C-19.17714934 -1.66177275 -9.1457469 -2.95815825 0 0 Z " fill="#186DB2" transform="translate(314.765625,340.89453125)"/>
<path d="M0 0 C4.29 0 8.58 0 13 0 C13 28.38 13 56.76 13 86 C9.7 86 6.4 86 3 86 C2.01 83.69 1.02 81.38 0 79 C-0.70125 79.763125 -1.4025 80.52625 -2.125 81.3125 C-7.72473428 86.54703422 -12.36309048 87.62534027 -19.89453125 87.41015625 C-26.31074843 86.56273134 -31.90233287 83.90204375 -35.9375 78.75 C-40.17341326 71.54894746 -41.53894413 64.40347964 -41.4375 56.125 C-41.42505249 54.81063965 -41.42505249 54.81063965 -41.41235352 53.46972656 C-41.15280105 43.50512881 -38.84305323 35.84960079 -31.765625 28.59375 C-26.34374558 23.69966415 -21.2915439 23.47869328 -14.20703125 23.640625 C-9.6008373 24.15678803 -6.86026727 25.4507669 -3 28 C-2.34 28.99 -1.68 29.98 -1 31 C-0.67 20.77 -0.34 10.54 0 0 Z " fill="#166CB1" transform="translate(630,316)"/>
<path d="M0 0 C8.49755757 4.72086532 12.83742591 10.42390664 15.98828125 19.67578125 C17.93153208 30.72679352 17.13497865 42.36887981 11.0546875 51.95703125 C6.92606995 57.31520977 1.67332223 59.77555926 -4.625 61.875 C-14.60737254 62.61309058 -23.95617195 62.72844867 -31.90625 55.921875 C-39.25853239 48.30320557 -41.18623962 40.32464312 -41.0625 29.9375 C-41.05637695 29.06085693 -41.05025391 28.18421387 -41.04394531 27.28100586 C-40.83564737 18.66788574 -38.9903337 11.06351888 -32.625 4.875 C-23.38872816 -1.70092579 -11.01319157 -3.70741102 0 0 Z " fill="#176DB2" transform="translate(508.625,341.125)"/>
<path d="M0 0 C6.38808737 4.93788367 10.84946666 10.50966483 12.08203125 18.609375 C13.13209639 30.44010888 12.85839215 41.75849307 5.33203125 51.546875 C0.49409341 56.66723053 -5.85637177 59.27366034 -12.80078125 59.84765625 C-21.7580127 60.05270131 -28.07707621 58.51391053 -35.73046875 53.921875 C-43.76873179 45.42428264 -45.5202983 34.96711834 -45.2265625 23.625 C-44.75260812 15.27868302 -41.72733161 8.25252953 -35.8671875 2.26953125 C-26.49744548 -5.71070995 -10.49496601 -6.36491976 0 0 Z " fill="#176DB2" transform="translate(379.91796875,343.390625)"/>
<path d="M0 0 C4.29 0 8.58 0 13 0 C15.41643972 5.30748184 17.15134131 10.59787214 18.69921875 16.21484375 C18.9391304 17.07058487 19.17904205 17.92632599 19.42622375 18.80799866 C20.18448902 21.5165974 20.93609337 24.22699151 21.6875 26.9375 C22.20333548 28.7846283 22.71960716 30.63163484 23.23632812 32.47851562 C24.49593418 36.98428474 25.74957363 41.49167515 27 46 C27.17539307 45.38817871 27.35078613 44.77635742 27.53149414 44.14599609 C31.78338198 29.35047322 36.25748626 14.64557435 41 0 C45.62 0 50.24 0 55 0 C57.15169278 5.56843729 59.02048572 11.14788035 60.69921875 16.875 C61.05908623 18.08990112 61.05908623 18.08990112 61.42622375 19.3293457 C62.18269733 21.8854374 62.93516483 24.44268756 63.6875 27 C64.20351028 28.74617231 64.71978387 30.49226683 65.23632812 32.23828125 C66.4939289 36.49129498 67.74794135 40.74535157 69 45 C70.36415496 42.40579574 71.41537995 39.92165645 72.22094727 37.10522461 C72.54622154 35.97901955 72.54622154 35.97901955 72.87806702 34.83006287 C73.10521896 34.02891556 73.33237091 33.22776825 73.56640625 32.40234375 C73.80536118 31.57166885 74.0443161 30.74099396 74.29051208 29.88514709 C75.05151796 27.23696982 75.80716629 24.58730011 76.5625 21.9375 C77.32253533 19.28446488 78.08365512 16.63174352 78.84519958 13.97914124 C79.31821982 12.33008052 79.79015107 10.68070697 80.26087952 9.0309906 C81.12669623 6.00180519 82.003586 2.989242 83 0 C87.29 0 91.58 0 96 0 C94.05675886 8.07783818 91.83902632 15.96570526 89.2421875 23.85546875 C88.7194072 25.45785149 88.7194072 25.45785149 88.18606567 27.09260559 C87.45693974 29.32419296 86.72578994 31.55512004 85.99267578 33.78540039 C84.86590589 37.2151816 83.74698189 40.64745404 82.62890625 44.08007812 C81.9171257 46.25535859 81.20490247 48.43049426 80.4921875 50.60546875 C80.15677948 51.634478 79.82137146 52.66348724 79.47579956 53.72367859 C79.16522614 54.6658876 78.85465271 55.60809662 78.53466797 56.57885742 C78.26169891 57.41092209 77.98872986 58.24298676 77.70748901 59.1002655 C77 61 77 61 76 62 C73.64686445 62.07271741 71.29166332 62.08370868 68.9375 62.0625 C67.00197266 62.04896484 67.00197266 62.04896484 65.02734375 62.03515625 C64.02832031 62.02355469 63.02929688 62.01195312 62 62 C57.09666438 46.39716608 52.21103961 30.8072693 48 15 C43.19981153 30.62872571 38.54436034 46.29502216 34 62 C29.05 62 24.1 62 19 62 C16.66584884 54.80358528 14.33532454 47.6060152 12.01108646 40.40639305 C10.93158946 37.06300347 9.85053986 33.72013302 8.76586914 30.37841797 C7.51759686 26.53243371 6.27621178 22.68425664 5.03515625 18.8359375 C4.64658951 17.64197357 4.25802277 16.44800964 3.85768127 15.21786499 C3.31723427 13.53680161 3.31723427 13.53680161 2.76586914 11.82177734 C2.44832169 10.84026703 2.13077423 9.85875671 1.80360413 8.84750366 C1 6 1 6 0 0 Z " fill="#186DB2" transform="translate(7,340)"/>
<path d="M0 0 C0.84272461 -0.01353516 1.68544922 -0.02707031 2.55371094 -0.04101562 C9.61976721 0.00888199 15.40849206 1.07551415 20.6875 6.125 C25.10818814 12.88605245 25.09130649 19.27473558 25.0078125 27.12109375 C25.0049826 28.13220718 25.00215271 29.14332062 24.99923706 30.18507385 C24.98809889 33.39433952 24.96300597 36.60331958 24.9375 39.8125 C24.92746198 41.99674074 24.91833757 44.18098589 24.91015625 46.36523438 C24.88818038 51.70193189 24.85369445 57.03841763 24.8125 62.375 C21.5125 62.375 18.2125 62.375 14.8125 62.375 C13.8225 60.065 12.8325 57.755 11.8125 55.375 C11.36519531 55.78492188 10.91789062 56.19484375 10.45703125 56.6171875 C9.85246094 57.15601563 9.24789062 57.69484375 8.625 58.25 C8.03332031 58.78367187 7.44164062 59.31734375 6.83203125 59.8671875 C0.80153117 64.36964984 -5.96430404 64.081617 -13.1875 63.375 C-19.43459417 61.55784211 -23.04085876 58.11031074 -26.26953125 52.4921875 C-28.29905365 47.81133159 -27.69393674 42.83803947 -26.0625 38.125 C-20.75088456 30.33463069 -13.69270304 27.99109554 -4.8125 26.1875 C0.42464882 25.30121328 5.51373819 25.16810691 10.8125 25.375 C10.55726126 23.74747769 10.28275506 22.12296804 10 20.5 C9.84917969 19.59507812 9.69835937 18.69015625 9.54296875 17.7578125 C8.98198699 15.03087522 8.98198699 15.03087522 5.8125 13.375 C-3.59073912 12.39919217 -12.12976025 13.95960273 -21.1875 16.375 C-21.1875 12.085 -21.1875 7.795 -21.1875 3.375 C-14.026104 0.84744847 -7.53360116 0.04994653 0 0 Z " fill="#196EB3" transform="translate(133.1875,339.625)"/>
<path d="M0 0 C0.83885742 -0.02191406 1.67771484 -0.04382813 2.54199219 -0.06640625 C8.35489781 -0.04804729 12.94450233 1.05318601 17.75 4.4375 C21.36604357 8.98073422 22.87831974 12.52112265 22.86352539 18.27612305 C22.86344986 19.2569133 22.86337433 20.23770355 22.86329651 21.24821472 C22.85813522 22.30454605 22.85297394 23.36087738 22.84765625 24.44921875 C22.8462413 25.53258011 22.84482635 26.61594147 22.84336853 27.73213196 C22.83776559 31.19644925 22.82521258 34.6607022 22.8125 38.125 C22.80748538 40.47200428 22.80292241 42.81900956 22.79882812 45.16601562 C22.7877952 50.92320192 22.77052858 56.68034005 22.75 62.4375 C19.78 62.4375 16.81 62.4375 13.75 62.4375 C11.75 58.4375 11.75 58.4375 11.75 55.4375 C11.07453125 55.93121094 10.3990625 56.42492187 9.703125 56.93359375 C8.81109375 57.57425781 7.9190625 58.21492188 7 58.875 C6.11828125 59.51308594 5.2365625 60.15117187 4.328125 60.80859375 C-1.75980855 64.65506086 -9.72458517 64.31147537 -16.63671875 62.9765625 C-21.72375816 61.32933069 -24.24210701 58.81261708 -27.25 54.4375 C-29.2577921 48.41412369 -29.29953453 41.69803591 -26.625 35.9375 C-18.84852741 27.75173938 -8.18345859 25.76806077 2.75 25.3125 C5.08370533 25.3125 7.41730341 25.36889128 9.75 25.4375 C9.09 21.8075 8.43 18.1775 7.75 14.4375 C-2.51993637 11.87001591 -12.19183387 13.78479684 -22.25 16.4375 C-22.25 12.1475 -22.25 7.8575 -22.25 3.4375 C-14.67421425 1.04514661 -7.91204505 0.0935299 0 0 Z " fill="#176CB1" transform="translate(681.25,339.5625)"/>
<path d="M0 0 C4.62 0 9.24 0 14 0 C14.33 10.56 14.66 21.12 15 32 C16.32 30.35 17.64 28.7 19 27 C25.58279119 22.78664485 32.4426188 23.27909225 40 24 C44.56321207 25.20730723 47.16944303 27.07965309 50.3125 30.5625 C55.96371886 42.07424212 55.35851466 53.67331411 55.1875 66.1875 C55.17242581 68.11261974 55.15874225 70.03775089 55.14648438 71.96289062 C55.11369566 76.64221284 55.06206443 81.32097826 55 86 C50.71 86 46.42 86 42 86 C41.970271 84.58690552 41.970271 84.58690552 41.93994141 83.14526367 C41.86112534 79.59832275 41.77441471 76.05174685 41.68261719 72.50512695 C41.64469716 70.97981 41.60978517 69.4544148 41.578125 67.92895508 C41.39351649 59.13985911 41.01285421 50.60011594 39 42 C38.8654541 41.27063232 38.7309082 40.54126465 38.59228516 39.78979492 C38.13035252 37.69928408 38.13035252 37.69928408 35.5 36.6875 C29.91637757 35.59071702 25.17226861 35.81941923 20.125 38.5625 C15.21422526 44.19544749 14.54788415 50.71100396 14.48828125 57.875 C14.47033005 58.68493408 14.45237885 59.49486816 14.43388367 60.3293457 C14.38021475 62.88617935 14.34602636 65.44283112 14.3125 68 C14.27928842 69.74611883 14.24479527 71.49221379 14.20898438 73.23828125 C14.12451413 77.49205525 14.05749805 81.74577941 14 86 C9.38 86 4.76 86 0 86 C0 57.62 0 29.24 0 0 Z " fill="#1B70B3" transform="translate(402,316)"/>
<path d="M0 0 C4.95 0 9.9 0 15 0 C16.96014945 5.42496368 18.91724439 10.85101608 20.87158203 16.27807617 C21.53611861 18.12212477 22.20147227 19.96587913 22.86767578 21.80932617 C23.82802589 24.46715611 24.78538134 27.12604877 25.7421875 29.78515625 C26.03809784 30.60210464 26.33400818 31.41905304 26.6388855 32.26075745 C28.26992212 36.80373125 29.73147587 41.34239316 31 46 C33.30097665 40.84685086 35.17348355 35.66861947 36.8828125 30.29296875 C37.27241653 29.08306023 37.27241653 29.08306023 37.66989136 27.84870911 C38.49144213 25.29598158 39.30851416 22.74185159 40.125 20.1875 C40.94925017 17.61550304 41.77447256 15.04382757 42.60153198 12.47273254 C43.11415552 10.87848556 43.62505817 9.283684 44.13406372 7.6882782 C45.8883786 2.2232428 45.8883786 2.2232428 47 0 C51.29 0 55.58 0 60 0 C58.65512278 5.69651854 57.00568966 11.17042266 55.05859375 16.6875 C54.77487915 17.49980576 54.49116455 18.31211151 54.19885254 19.14903259 C53.28260603 21.76751926 52.36061086 24.38392602 51.4375 27 C51.12386505 27.89139679 50.8102301 28.78279358 50.48709106 29.70120239 C46.6975672 40.46805864 42.89335444 51.23044854 38.9375 61.9375 C38.43851196 63.30745117 38.43851196 63.30745117 37.92944336 64.70507812 C34.78655334 73.08611817 31.57406649 80.84318877 24 86 C20.51071264 87.21433349 17.10665781 87.13334848 13.4375 87.125 C12.30183594 87.12757813 11.16617188 87.13015625 9.99609375 87.1328125 C7 87 7 87 4 86 C4.33 82.7 4.66 79.4 5 76 C6.10408203 75.94392578 6.10408203 75.94392578 7.23046875 75.88671875 C14.69511167 75.57724273 14.69511167 75.57724273 21 72 C23.51524476 68.17312052 23.51524476 68.17312052 23.73217773 63.74511719 C22.83794311 60.39240825 21.66229236 57.18417115 20.41015625 53.953125 C20.1497757 53.27243958 19.88939514 52.59175415 19.62112427 51.89044189 C18.77229936 49.67538201 17.91752394 47.46267357 17.0625 45.25 C16.47613137 43.7233791 15.88995109 42.19668584 15.30395508 40.66992188 C11.2710061 30.18529368 7.1456072 19.74000513 2.89672852 9.34082031 C2.31942993 7.91914551 2.31942993 7.91914551 1.73046875 6.46875 C1.39426514 5.64826172 1.05806152 4.82777344 0.71166992 3.98242188 C0 2 0 2 0 0 Z " fill="#176CB1" transform="translate(710,340)"/>
<path d="M0 0 C4.62 0 9.24 0 14 0 C26.14893617 31.4893617 26.14893617 31.4893617 30 45 C31.6842436 42.4736346 32.50551236 40.82676909 33.40454102 38.01928711 C33.66143204 37.22513901 33.91832306 36.43099091 34.18299866 35.61277771 C34.45389816 34.7595845 34.72479767 33.9063913 35.00390625 33.02734375 C35.28725327 32.14849014 35.57060028 31.26963654 35.86253357 30.364151 C36.7669163 27.55665764 37.66500016 24.74720048 38.5625 21.9375 C39.46462135 19.1245805 40.36805654 16.31209287 41.2731781 13.50013733 C41.83608933 11.75015502 42.39706756 9.99954956 42.95594788 8.24827576 C43.20968674 7.45727982 43.4634256 6.66628387 43.72485352 5.85131836 C43.9475441 5.15421249 44.17023468 4.45710663 44.39967346 3.73887634 C45 2 45 2 46 0 C50.29 0 54.58 0 59 0 C57.47981857 7.91249382 54.9096337 15.30902406 52.16796875 22.87109375 C51.68925877 24.20180108 51.21085578 25.53261888 50.73274231 26.86354065 C49.73356258 29.64089615 48.73039006 32.41676732 47.72436523 35.19165039 C46.4456477 38.71982633 45.17746832 42.25168207 43.91236401 45.78475857 C42.92757311 48.53099174 41.93688231 51.27506904 40.94451332 54.01857185 C40.47507981 55.31865183 40.00746435 56.61938996 39.54183006 57.92083549 C30.92708371 81.96417664 30.92708371 81.96417664 22.4375 86.3125 C15.5683236 87.68633528 8.83914755 87.36782951 2 86 C2.66 82.7 3.32 79.4 4 76 C4.80824219 75.97421875 5.61648437 75.9484375 6.44921875 75.921875 C13.06291813 75.6322386 13.06291813 75.6322386 19.125 73.25 C21.17482516 70.79020981 22.2572022 69.11975076 23 66 C22.47690638 60.57283962 20.56752524 55.79347772 18.61328125 50.75390625 C18.10404366 49.4216526 18.10404366 49.4216526 17.58451843 48.06248474 C16.49909586 45.22711069 15.40579996 42.39484454 14.3125 39.5625 C13.5965138 37.69354756 12.88101447 35.82440852 12.16601562 33.95507812 C8.2255395 23.65622482 8.2255395 23.65622482 4.14208984 13.41357422 C3.8597197 12.71948959 3.57734955 12.02540497 3.28642273 11.31028748 C2.53644255 9.4766918 1.77866458 7.64629091 1.02026367 5.81616211 C0 3 0 3 0 0 Z " fill="#176CB2" transform="translate(164,340)"/>
<path d="M0 0 C4.03235859 3.30860192 5.81921184 6.17530091 6.3359375 11.390625 C6.46574112 24.21522223 3.46862819 30.18020943 -5.42773438 39.3984375 C-9.47237819 43.51844735 -13.56225229 47.59438885 -17.67871094 51.64257812 C-18.35192383 52.30708984 -19.02513672 52.97160156 -19.71875 53.65625 C-20.32654297 54.25244141 -20.93433594 54.84863281 -21.56054688 55.46289062 C-23.09777728 56.95809649 -23.09777728 56.95809649 -24 59 C-14.1 59 -4.2 59 6 59 C6 62.3 6 65.6 6 69 C-8.85 69 -23.7 69 -39 69 C-39 59 -39 59 -36.98046875 55.8203125 C-36.05878906 54.93085938 -35.13710937 54.04140625 -34.1875 53.125 C-33.17401252 52.10853799 -32.16100534 51.09159689 -31.1484375 50.07421875 C-30.36484863 49.31310791 -30.36484863 49.31310791 -29.56542969 48.53662109 C-27.06381908 46.08104761 -24.68455594 43.51758696 -22.3125 40.9375 C-21.63247925 40.20225098 -21.63247925 40.20225098 -20.9387207 39.45214844 C-11.16911402 29.07088188 -11.16911402 29.07088188 -7.7109375 15.90625 C-7.84676915 13.79747638 -7.84676915 13.79747638 -9.8125 12.0625 C-16.98814204 8.57718815 -24.20801484 9.81635127 -31.73828125 11.5625 C-34 12 -34 12 -38 12 C-38 8.37 -38 4.74 -38 1 C-36.27255984 0.34956281 -34.5429631 -0.29514844 -32.8125 -0.9375 C-31.84957031 -1.29714844 -30.88664063 -1.65679687 -29.89453125 -2.02734375 C-19.98779337 -5.35632854 -9.03526262 -5.71059889 0 0 Z " fill="#186EB2" transform="translate(269,333)"/>
<path d="M0 0 C0.82113281 -0.01224609 1.64226563 -0.02449219 2.48828125 -0.03710938 C7.91309189 -0.05000512 12.53986647 0.66887813 17.75 2.1875 C17.09 5.8175 16.43 9.4475 15.75 13.1875 C14.55375 13.0225 13.3575 12.8575 12.125 12.6875 C7.89552894 12.23025989 3.69067819 12.02638565 -0.5625 11.9375 C-1.73425781 11.91171875 -2.90601563 11.8859375 -4.11328125 11.859375 C-7.51021999 12.21472102 -8.89393451 12.75078679 -11.25 15.1875 C-11.58425735 17.81375139 -11.58425735 17.81375139 -11.25 20.1875 C-6.80842245 22.63489988 -2.53425436 24.46499217 2.32519531 25.95239258 C9.8853217 28.27336995 15.94667911 30.55592636 20.1875 37.5625 C21.50835148 43.72647358 21.33009822 48.74690721 18.2890625 54.29296875 C14.48786864 58.97210333 8.59480897 61.96267368 2.75 63.1875 C-7.18818787 63.97265729 -16.90261186 63.86516091 -26.25 60.1875 C-25.92 56.5575 -25.59 52.9275 -25.25 49.1875 C-23.744375 49.5175 -22.23875 49.8475 -20.6875 50.1875 C-11.37129209 51.86490013 -1.67263864 53.07598399 6.75 48.1875 C7.25169415 45.35676564 7.25169415 45.35676564 6.75 42.1875 C1.53942289 37.91300431 -4.33599823 36.3690891 -10.70507812 34.4765625 C-16.0332783 32.81512875 -20.22652196 31.09395028 -23.5390625 26.3359375 C-25.51520904 20.3640661 -25.18441835 13.31797385 -22.6875 7.625 C-15.94452546 0.88202546 -9.09447479 0.00700653 0 0 Z " fill="#176CB1" transform="translate(800.25,339.8125)"/>
<path d="M0 0 C4.29 0 8.58 0 13 0 C13 28.38 13 56.76 13 86 C8.71 86 4.42 86 0 86 C0 57.62 0 29.24 0 0 Z " fill="#186DB2" transform="translate(537,316)"/>
<path d="M0 0 C5.19719122 1.79902773 7.32849441 4.25065673 10 9 C12.51819427 16.55458282 11.92392694 26.87390899 8.98828125 34.26171875 C6.83429956 38.05034268 4.01783768 39.66072077 0 41 C-5.23784065 41.39530873 -8.64742972 41.02787498 -13 38 C-17.71056789 32.4215621 -18.74974785 27.52687012 -18.5 20.375 C-18.50257813 19.55515625 -18.50515625 18.7353125 -18.5078125 17.890625 C-18.42728269 12.88167084 -17.75519611 9.32770612 -15 5 C-10.08419054 0.5637817 -6.61444295 -0.66638045 0 0 Z " fill="#FBFDFD" transform="translate(500,351)"/>
<path d="M0 0 C3.58273508 1.41957428 6.67882726 2.8664168 9 6 C10.88143663 10.64457972 11.35300513 14.91341476 11.3125 19.875 C11.30758545 20.58172852 11.3026709 21.28845703 11.29760742 22.01660156 C11.1460939 28.75157181 10.47925545 33.58272593 5.5 38.4375 C1.25729156 41.08919278 -2.0610427 41.33484456 -7 41 C-11.058381 39.64720633 -13.15644449 38.17660744 -15.3125 34.5625 C-18.91871184 26.94938611 -19.44957319 17.55807777 -17.31640625 9.37890625 C-13.92366141 1.93176093 -8.03890501 -1.34784036 0 0 Z " fill="#FBFDFE" transform="translate(367,351)"/>
<path d="M0 0 C3.83362505 2.78809094 5.59382322 5.48633813 6.75 10 C7.55973296 18.68870764 7.70818001 28.00219594 3.75 36 C1.39882921 38.81751871 -0.61684651 39.84096633 -4.3359375 40.203125 C-9.10608513 40.3008072 -12.56473083 40.36938896 -16.25 37 C-20.21301695 31.13120101 -20.84894247 25.82223413 -20.6875 18.875 C-20.69458984 18.00746094 -20.70167969 17.13992188 -20.70898438 16.24609375 C-20.64973714 10.25756555 -19.67407313 5.92908837 -15.75 1.1875 C-11.26070742 -2.36652329 -5.11505287 -1.57386242 0 0 Z " fill="#FBFDFD" transform="translate(623.25,352)"/>
<path d="M0 0 C2.00621437 0.64772551 4.00708811 1.31243425 6 2 C6.09935088 6.30495015 6.17169268 10.60928183 6.21972656 14.91503906 C6.23976332 16.37772252 6.26700104 17.84032666 6.30175781 19.30273438 C6.35063225 21.4129601 6.37304659 23.52212136 6.390625 25.6328125 C6.41157227 26.90012207 6.43251953 28.16743164 6.45410156 29.47314453 C5.85161955 34.15242151 3.98229782 37.44248029 0.25 40.375 C-4.37300801 41.65916889 -8.41294026 41.6348239 -12.8125 39.875 C-16.17323133 36.99437314 -17.76678568 33.99133719 -18.28735352 29.54638672 C-18.40334958 26.69160892 -18.40910012 23.85683203 -18.375 21 C-18.38660156 20.02804687 -18.39820313 19.05609375 -18.41015625 18.0546875 C-18.38262228 11.31804263 -17.47308044 6.8477896 -12.9375 1.625 C-8.68272321 -0.72870631 -4.76371783 -0.61605975 0 0 Z " fill="#FCFDFE" transform="translate(311,351)"/>
<path d="M0 0 C4.29 0 8.58 0 13 0 C13 20.46 13 40.92 13 62 C8.71 62 4.42 62 0 62 C0 41.54 0 21.08 0 0 Z " fill="#1A71B4" transform="translate(565,340)"/>
<path d="M0 0 C1.05820492 10.38048638 1.05820492 10.38048638 -1.34765625 14.0625 C-5.921551 18.08350638 -10.55173878 19.69933634 -16.5625 20.4375 C-20 20 -20 20 -22.9375 17.9375 C-25 15 -25 15 -25.6875 11.5 C-24.94568355 7.72347987 -23.96292539 6.2324467 -20.83203125 3.99609375 C-14.73466556 0.68089492 -6.85369915 0 0 0 Z " fill="#F8FBFD" transform="translate(691,373)"/>
<path d="M0 0 C0.90964778 11.50535988 0.90964778 11.50535988 -1.16015625 14.90625 C-2.6875 16.1875 -2.6875 16.1875 -6 18 C-6.78375 18.433125 -7.5675 18.86625 -8.375 19.3125 C-13.34877407 20.61515511 -17.32713691 20.88982079 -21.9375 18.4375 C-24.68320922 15.19257093 -25.14869483 13.23780261 -25 9 C-21.52592362 3.90468797 -16.79019187 2.29983899 -11 1 C-7.36199029 0.47148801 -3.68306678 0 0 0 Z " fill="#F9FBFD" transform="translate(144,373)"/>
<path d="M0 0 C4.29 0 8.58 0 13 0 C13 20.46 13 40.92 13 62 C8.71 62 4.42 62 0 62 C0 41.54 0 21.08 0 0 Z M2 2 C2 21.14 2 40.28 2 60 C5.3 60 8.6 60 12 60 C12 40.86 12 21.72 12 2 C8.7 2 5.4 2 2 2 Z " fill="#0F5FAB" transform="translate(565,340)"/>
<path d="M0 0 C2.65585895 0.53405859 3.55487466 1.27173705 5.15625 3.43359375 C5.65625 6.87109375 5.65625 6.87109375 5.15625 10.43359375 C3.09375 12.93359375 3.09375 12.93359375 0.15625 14.43359375 C-3.36347785 14.37290879 -5.76322533 14.09585081 -8.78125 12.24609375 C-10.38448557 9.51116248 -10.22452478 7.54325445 -9.84375 4.43359375 C-7.93483133 -0.40233354 -4.62571145 -0.00770952 0 0 Z " fill="#1569B0" transform="translate(573.84375,314.56640625)"/>
<path d="M0 0 C0 0.99 0 1.98 0 3 C-0.33 3.33 -0.66 3.66 -1 4 C-1.33 6.31 -1.66 8.62 -2 11 C11.86 11 25.72 11 40 11 C40 8.69 40 6.38 40 4 C30.76 4 21.52 4 12 4 C12 3.67 12 3.34 12 3 C21.9 3 31.8 3 42 3 C42 6.3 42 9.6 42 13 C27.15 13 12.3 13 -3 13 C-3 9.7 -3 6.4 -3 3 C-2.01 2.01 -1.02 1.02 0 0 Z " fill="#0D5DAA" transform="translate(233,389)"/>
<path d="M0 0 C16.5 3 16.5 3 33 6 C33 6.33 33 6.66 33 7 C30.69 7 28.38 7 26 7 C26.03122943 8.96756452 26.03122943 8.96756452 27 11 C29.99615946 12.3045656 29.99615946 12.3045656 33 13 C27.18390226 15.20180843 21.3174622 11.39173728 16 9 C10.60860916 6.44816403 5.29741079 3.74050905 0 1 C0 0.67 0 0.34 0 0 Z " fill="#1061AB" transform="translate(78,269)"/>
<path d="M0 0 C0.33 0 0.66 0 1 0 C1 11.22 1 22.44 1 34 C4.3 34 7.6 34 11 34 C10.97679687 32.57945312 10.95359375 31.15890625 10.9296875 29.6953125 C10.91093229 27.83854691 10.89273183 25.98177565 10.875 24.125 C10.85824219 23.18785156 10.84148437 22.25070312 10.82421875 21.28515625 C10.81777344 20.38925781 10.81132812 19.49335938 10.8046875 18.5703125 C10.78897705 17.32918701 10.78897705 17.32918701 10.77294922 16.06298828 C11 14 11 14 13 12 C13 19.92 13 27.84 13 36 C8.71 36 4.42 36 0 36 C0 24.12 0 12.24 0 0 Z " fill="#065AA8" transform="translate(444,366)"/>
<path d="M0 0 C1.72926874 0.31193464 3.45841044 0.62457362 5.1875 0.9375 C6.15042969 1.11152344 7.11335938 1.28554688 8.10546875 1.46484375 C9.06066406 1.64144531 10.01585938 1.81804687 11 2 C11.88300781 2.14566406 12.76601562 2.29132813 13.67578125 2.44140625 C16 3 16 3 19 5 C19 5.99 19 6.98 19 8 C11.7452991 6.98525061 6.188579 4.91644371 0 1 C0 0.67 0 0.34 0 0 Z " fill="#1B5FA9" transform="translate(78,269)"/>
<path d="M0 0 C4.29 0 8.58 0 13 0 C12.67 1.65 12.34 3.3 12 5 C11.67 4.01 11.34 3.02 11 2 C7.7 2 4.4 2 1 2 C0.34 4.31 -0.32 6.62 -1 9 C-2.48576635 4.98843085 -1.80747878 4.51869696 0 0 Z " fill="#0F61AB" transform="translate(210,340)"/>
<path d="M0 0 C4.29 0 8.58 0 13 0 C13.33 1.65 13.66 3.3 14 5 C13.67 4.01 13.34 3.02 13 2 C9.37 2 5.74 2 2 2 C2.33 3.98 2.66 5.96 3 8 C1 6 1 6 0 0 Z " fill="#1061AC" transform="translate(7,340)"/>
<path d="M0 0 C0.66 0.33 1.32 0.66 2 1 C-4.75 5 -4.75 5 -7 5 C-7 6.32 -7 7.64 -7 9 C-8.5 11.75 -8.5 11.75 -10 14 C-10.66 13.67 -11.32 13.34 -12 13 C-11.47731534 10.23723823 -10.89130413 7.6739124 -10 5 C-7.78515625 3.578125 -7.78515625 3.578125 -5.0625 2.25 C-4.16660156 1.80140625 -3.27070313 1.3528125 -2.34765625 0.890625 C-1.18556641 0.44976562 -1.18556641 0.44976562 0 0 Z " fill="#0E60AC" transform="translate(479,210)"/>
<path d="M0 0 C4.29 0 8.58 0 13 0 C12.34 1.32 11.68 2.64 11 4 C11 3.34 11 2.68 11 2 C7.7 2 4.4 2 1 2 C0.67 2.66 0.34 3.32 0 4 C0 2.68 0 1.36 0 0 Z " fill="#1062AC" transform="translate(90,340)"/>
<path d="M0 0 C4.29 0 8.58 0 13 0 C12.34 1.32 11.68 2.64 11 4 C11 3.34 11 2.68 11 2 C7.37 2.33 3.74 2.66 0 3 C0 2.01 0 1.02 0 0 Z " fill="#0F62AD" transform="translate(757,340)"/>
<path d="M0 0 C0.66 0.33 1.32 0.66 2 1 C2 1.99 2 2.98 2 4 C0 5.6875 0 5.6875 -2 7 C-2.66 6.67 -3.32 6.34 -4 6 C-4 5.67 -4 5.34 -4 5 C-4.66 4.67 -5.32 4.34 -6 4 C-4.02 2.68 -2.04 1.36 0 0 Z " fill="#0E5DAA" transform="translate(494,201)"/>
<path d="M0 0 C0 0.99 0 1.98 0 3 C-2.64 2.67 -5.28 2.34 -8 2 C-8.33 1.01 -8.66 0.02 -9 -1 C-5.38055101 -2.34053666 -3.42632833 -1.61798838 0 0 Z " fill="#1E73B5" transform="translate(97,274)"/>
<path d="M0 0 C0.66 0.33 1.32 0.66 2 1 C-0.57784846 3.64752004 -2.91648098 5.94432065 -6 8 C-4.73058503 4.08597051 -3.48832306 2.20927127 0 0 Z " fill="#1361AC" transform="translate(291,343)"/>
<path d="M0 0 C1.32 0.33 2.64 0.66 4 1 C3.67 2.65 3.34 4.3 3 6 C0.525 5.01 0.525 5.01 -2 4 C-1.34 2.68 -0.68 1.36 0 0 Z " fill="#1F71B5" transform="translate(480,209)"/>
<path d="M0 0 C1.65 0 3.3 0 5 0 C4.67 1.32 4.34 2.64 4 4 C2.02 4.33 0.04 4.66 -2 5 C-2 4.34 -2 3.68 -2 3 C-1.34 3 -0.68 3 0 3 C0 2.01 0 1.02 0 0 Z " fill="#1B71B4" transform="translate(487,205)"/>
<path d="M0 0 C0.66 0.33 1.32 0.66 2 1 C-1.465 3.97 -1.465 3.97 -5 7 C-5.66 6.67 -6.32 6.34 -7 6 C-4.69 4.02 -2.38 2.04 0 0 Z " fill="#0958A7" transform="translate(348,343)"/>
</svg>
