<?xml version="1.0" encoding="UTF-8"?>
<svg version="1.1" xmlns="http://www.w3.org/2000/svg" width="1090" height="245">
<path d="M0 0 C359.7 0 719.4 0 1090 0 C1090 80.85 1090 161.7 1090 245 C730.3 245 370.6 245 0 245 C0 164.15 0 83.3 0 0 Z " fill="#FEFEFE" transform="translate(0,0)"/>
<path d="M0 0 C3.16441267 2.92099631 4.27289785 4.83748386 4.7734375 9.1328125 C4.86573296 16.79333591 3.97575573 22.45781265 0.4375 29.25 C-0.036875 30.19488281 -0.51125 31.13976563 -1 32.11328125 C-5.09375177 39.70049907 -10.14003687 45.55533037 -16.10351562 51.69018555 C-17.74053952 53.4403438 -19.26887683 55.26471578 -20.8125 57.09765625 C-23.41785825 60.11232625 -26.15646985 62.68293618 -29.21875 65.23046875 C-30.0128125 65.92205078 -30.806875 66.61363281 -31.625 67.32617188 C-33.24333478 68.72795064 -34.90056582 70.08609569 -36.59375 71.39648438 C-39.74712382 74.24644969 -42.31481643 76.91640052 -42.78227425 81.32064629 C-42.74953576 83.79828173 -42.5926645 86.23827172 -42.38891602 88.70776367 C-42.29833593 90.09014253 -42.29833593 90.09014253 -42.20592594 91.50044823 C-42.0101318 94.41861862 -41.78720447 97.33392883 -41.5625 100.25 C-41.43580717 102.06685707 -41.3107243 103.88382722 -41.18734741 105.70091248 C-40.86536352 110.35837646 -40.51726291 115.01349013 -40.16039848 119.66839981 C-39.9259204 122.7331057 -39.69592294 125.79812092 -39.46705627 128.86325073 C-38.81715973 137.56084824 -38.16196546 146.2580324 -37.49829102 154.95458984 C-37.08905853 160.32113828 -36.68685675 165.68817766 -36.28883553 171.0555687 C-36.13796641 173.07197539 -35.98454988 175.08819347 -35.8283062 177.10419083 C-35.0633378 186.98247016 -34.40460411 196.86101993 -34.21118164 206.76904297 C-34.18224792 207.54156466 -34.15331419 208.31408634 -34.12350368 209.11001778 C-34.08415288 214.36308382 -35.25374793 217.12956244 -38.6875 221.0625 C-40.28375177 222.49112031 -41.90707889 223.89038364 -43.5625 225.25 C-44.65657306 226.44861782 -45.74165664 227.65558413 -46.8125 228.875 C-49.91818246 231.5571803 -50.66746696 231.49834103 -54.5625 231.25 C-58.90822553 222.05570517 -62.72171556 212.65601888 -66.54907227 203.23773193 C-68.51916466 198.39182432 -70.4987221 193.54978039 -72.4765625 188.70703125 C-73.31283384 186.65836928 -74.14909675 184.60970387 -74.98535156 182.56103516 C-78.91400206 172.93927249 -82.84579838 163.31885561 -86.79730225 153.70645142 C-87.63954963 151.65511645 -88.47992848 149.60301327 -89.31842041 147.55014038 C-90.48886906 144.68513332 -91.66553206 141.8227565 -92.84375 138.9609375 C-93.19190765 138.10469284 -93.54006531 137.24844818 -93.89877319 136.36625671 C-94.22157257 135.5858754 -94.54437195 134.80549408 -94.87695312 134.00146484 C-95.15575317 133.32143402 -95.43455322 132.6414032 -95.72180176 131.94076538 C-96.54985085 130.05042778 -96.54985085 130.05042778 -98.5625 128.25 C-99.18125 128.83116577 -99.18125 128.83116577 -99.8125 129.42407227 C-113.40947883 142.18451822 -113.40947883 142.18451822 -119.5078125 147.4453125 C-122.79740083 150.33464674 -126.0335583 153.28464032 -129.19458008 156.31420898 C-132.3117783 159.28299061 -135.46748273 161.95538739 -138.95703125 164.48046875 C-146.97975001 170.4725873 -146.97975001 170.4725873 -151.27929688 179.21630859 C-152.03438935 186.61197029 -151.44328115 193.89172803 -150.5625 201.25 C-150.38402182 202.9075421 -150.20562765 204.56509324 -150.02734375 206.22265625 C-149.77866908 208.42470649 -149.5129624 210.61984323 -149.21875 212.81640625 C-148.85308179 217.4878176 -149.62736781 219.90737785 -152.6875 223.5 C-153.95210116 224.77737491 -155.2433413 226.02904828 -156.5625 227.25 C-157.38427734 228.04664063 -157.38427734 228.04664063 -158.22265625 228.859375 C-161.28958764 231.65177289 -162.2656395 232.25 -166.5625 232.25 C-168.3907052 228.64438393 -170.2121508 225.03542704 -172.02923584 221.42419434 C-173.00087012 219.4982753 -173.97910936 217.57580407 -174.95751953 215.65332031 C-177.85818159 209.91875919 -180.66342185 204.23977427 -182.93359375 198.21875 C-183.28043213 197.32768555 -183.62727051 196.43662109 -183.98461914 195.51855469 C-184.59266251 193.91143828 -185.1580175 192.28706981 -185.66577148 190.64550781 C-188.40562243 183.54201722 -194.43755538 181.24060173 -200.96728516 178.29003906 C-201.71778137 177.95846802 -202.46827759 177.62689697 -203.24151611 177.28527832 C-206.39420189 175.87901813 -209.50171508 174.38411782 -212.61434937 172.89178467 C-216.58723928 170.99033911 -220.5761214 169.12295237 -224.5625 167.25 C-226.22403996 166.46762124 -227.88549868 165.68506994 -229.546875 164.90234375 C-233.55115462 163.01624933 -237.55650904 161.1324567 -241.5625 159.25 C-240.77446984 155.51853125 -239.56321687 153.87100011 -236.8125 151.1875 C-236.13703125 150.51589844 -235.4615625 149.84429687 -234.765625 149.15234375 C-231.2830738 146.14524724 -228.91289928 144.31942221 -224.20019531 144.07714844 C-222.94303711 144.1702832 -221.68587891 144.26341797 -220.390625 144.359375 C-219.70877136 144.40564026 -219.02691772 144.45190552 -218.32440186 144.49957275 C-216.15232741 144.65088776 -213.98280171 144.82525596 -211.8125 145 C-210.36989666 145.1030431 -208.92718775 145.20461934 -207.484375 145.3046875 C-190.80354211 146.48981321 -190.80354211 146.48981321 -183.6640625 147.76953125 C-180.62432327 148.12912185 -178.52654874 148.08695591 -175.5625 147.25 C-171.7720952 144.11857394 -168.76581215 140.59570719 -165.73486328 136.74072266 C-164.30063157 134.91702028 -162.78713677 133.17496537 -161.25 131.4375 C-160.71761719 130.82261719 -160.18523437 130.20773438 -159.63671875 129.57421875 C-156.66762583 126.24726905 -153.61216869 123.00300636 -150.5625 119.75 C-143.16593972 111.85048907 -136.12366988 103.86527473 -129.5625 95.25 C-130.10002396 95.08188309 -130.63754791 94.91376617 -131.19136047 94.74055481 C-137.04306108 92.85726381 -142.62356749 90.58641179 -148.23046875 88.07421875 C-149.13548126 87.67241394 -150.04049377 87.27060913 -150.97293091 86.85662842 C-153.90068924 85.55483984 -156.82547352 84.24653113 -159.75 82.9375 C-161.7834301 82.03064185 -163.8168775 81.12382249 -165.8503418 80.21704102 C-179.59201246 74.07818636 -193.26623951 67.81040296 -206.875 61.3828125 C-211.45725824 59.2218002 -216.06055959 57.11829278 -220.6875 55.0546875 C-222.38072388 54.2958728 -222.38072388 54.2958728 -224.1081543 53.52172852 C-226.22551627 52.57594924 -228.34658318 51.63840413 -230.47192383 50.71069336 C-231.39513428 50.29698486 -232.31834473 49.88327637 -233.26953125 49.45703125 C-234.0788208 49.1010083 -234.88811035 48.74498535 -235.72192383 48.37817383 C-237.5625 47.25 -237.5625 47.25 -238.5625 44.25 C-234.98289774 37.82227941 -227.98226531 33.45988265 -221.5625 30.25 C-210.78977986 30.37043446 -200.05536914 32.00208036 -189.39743042 33.43353271 C-168.55146863 36.2201752 -147.66902069 38.69664383 -126.77368164 41.07931519 C-123.60983425 41.44016454 -120.44646077 41.80479631 -117.28344727 42.17288208 C-113.50493837 42.61228308 -109.72557677 43.04348932 -105.94545174 43.46875572 C-104.55018344 43.62688909 -103.15520018 43.78756404 -101.76055717 43.95112038 C-86.0579426 46.60814929 -86.0579426 46.60814929 -71.2890625 43.30859375 C-70.24878906 42.01115234 -70.24878906 42.01115234 -69.1875 40.6875 C-68.00414062 39.31271484 -68.00414062 39.31271484 -66.796875 37.91015625 C-66.05953125 37.03230469 -65.3221875 36.15445313 -64.5625 35.25 C-63.21563406 34.0103845 -61.84238162 32.79845732 -60.4375 31.625 C-57.68701314 29.27217389 -55.10222186 26.8292506 -52.5625 24.25 C-40.37040053 11.96375304 -18.68778167 -9.17996293 0 0 Z " fill="#257ECC" transform="translate(251.5625,5.75)"/>
<path d="M0 0 C4.62 0 9.24 0 14 0 C16.44070718 6.1098113 18.15298206 12.19203625 19.6640625 18.58984375 C19.90160248 19.57497452 20.13914246 20.56010529 20.38388062 21.5750885 C21.13569472 24.69476875 21.88093912 27.81596223 22.625 30.9375 C23.37673612 34.08389488 24.12995222 37.22990255 24.88754272 40.37489319 C25.35742241 42.32605771 25.82384687 44.2780581 26.28652954 46.23094177 C26.49699921 47.10597855 26.70746887 47.98101532 26.92431641 48.88256836 C27.108461 49.65563828 27.29260559 50.42870819 27.48233032 51.22520447 C27.84812168 53.00839603 27.84812168 53.00839603 29 54 C29.14589569 53.38247864 29.29179138 52.76495728 29.44210815 52.12872314 C30.96115049 45.7035337 32.48710516 39.28001428 34.01708984 32.85742188 C34.58722647 30.46005738 35.15559744 28.06227227 35.72216797 25.6640625 C36.53670179 22.21762867 37.35756693 18.77275585 38.1796875 15.328125 C38.43185028 14.25508118 38.68401306 13.18203735 38.94381714 12.07647705 C39.1839151 11.07574158 39.42401306 10.0750061 39.67138672 9.04394531 C39.88012421 8.16458313 40.08886169 7.28522095 40.30392456 6.37921143 C41 4 41 4 43 0 C47.29 0 51.58 0 56 0 C58.41757288 6.12075521 60.25141151 12.26223237 61.91796875 18.625 C62.18007645 19.61250244 62.44218414 20.60000488 62.7122345 21.61743164 C63.54115745 24.74395434 64.36441405 27.87193617 65.1875 31 C65.75157814 33.13160968 66.31602752 35.26312116 66.88085938 37.39453125 C68.25820186 42.59522611 69.63090646 47.79712787 71 53 C73.22551466 44.85227531 75.34855886 36.68845012 77.32421875 28.4765625 C77.61511887 27.26791534 77.61511887 27.26791534 77.91189575 26.03485107 C78.7103615 22.71040889 79.50623791 19.38536009 80.29907227 16.05957031 C80.88771243 13.59365169 81.48067109 11.12880371 82.07421875 8.6640625 C82.25337326 7.90694977 82.43252777 7.14983704 82.61711121 6.36978149 C83.88666031 1.11333969 83.88666031 1.11333969 85 0 C87.35313555 -0.07271741 89.70833668 -0.08370868 92.0625 -0.0625 C93.99802734 -0.04896484 93.99802734 -0.04896484 95.97265625 -0.03515625 C96.97167969 -0.02355469 97.97070312 -0.01195313 99 0 C99.1705548 5.07593285 98.6162972 9.3812514 97.36352539 14.29638672 C97.18956741 14.98830612 97.01560944 15.68022552 96.83638 16.39311218 C96.26487461 18.65743919 95.68152878 20.91852084 95.09765625 23.1796875 C94.69585938 24.7589651 94.29470022 26.33840507 93.89414978 27.91799927 C93.05605274 31.21587065 92.2124631 34.51226858 91.36450195 37.80761719 C90.27575204 42.03928309 89.19749098 46.2735323 88.12285709 50.50880241 C87.29624699 53.76421573 86.46587059 57.01865802 85.63415337 60.27276993 C85.23506816 61.83475135 84.83676819 63.3969336 84.43925667 64.95931625 C83.8850465 67.13381046 83.32618978 69.30705398 82.76586914 71.47998047 C82.44832169 72.7179538 82.13077423 73.95592712 81.80360413 75.23141479 C81 78 81 78 80 79 C77.46950598 79.07313567 74.96695163 79.09247527 72.4375 79.0625 C71.37112305 79.05573242 71.37112305 79.05573242 70.28320312 79.04882812 C68.52209987 79.03700864 66.76103964 79.01907263 65 79 C61.22002705 66.2658146 57.53943184 53.50806642 54.0625 40.6875 C53.75626709 39.56746582 53.45003418 38.44743164 53.13452148 37.29345703 C52.85423096 36.2517334 52.57394043 35.21000977 52.28515625 34.13671875 C52.03644775 33.21592529 51.78773926 32.29513184 51.53149414 31.34643555 C51 29 51 29 51 26 C50.34 26 49.68 26 49 26 C48.91363281 27.19238281 48.82726562 28.38476562 48.73828125 29.61328125 C47.98913626 36.32672241 46.03624314 42.70851087 44.1875 49.1875 C43.84396484 50.41275391 43.50042969 51.63800781 43.14648438 52.90039062 C42.45545973 55.35981604 41.76002078 57.81800565 41.06005859 60.27490234 C40.32679222 62.85163619 39.60003269 65.42948216 38.88134766 68.01025391 C38.52117942 69.29460212 38.16099132 70.57894477 37.80078125 71.86328125 C37.31798706 73.5944519 37.31798706 73.5944519 36.82543945 75.3605957 C36 78 36 78 35 79 C32.46950598 79.07313567 29.96695163 79.09247527 27.4375 79.0625 C26.72658203 79.05798828 26.01566406 79.05347656 25.28320312 79.04882812 C23.52209987 79.03700864 21.76103964 79.01907263 20 79 C17.59984531 72.37404105 15.61993755 65.74134388 14.0625 58.875 C12.74154608 53.05995224 11.30663952 47.30189947 9.6875 41.5625 C9.48624512 40.84594238 9.28499023 40.12938477 9.07763672 39.39111328 C8.63795926 37.82658595 8.19800278 36.26213702 7.7578125 34.69775391 C6.21890124 29.21934882 4.69539359 23.73702547 3.1875 18.25 C2.87321045 17.13052979 2.5589209 16.01105957 2.23510742 14.85766602 C1.79968628 13.26523071 1.79968628 13.26523071 1.35546875 11.640625 C1.09403076 10.69735352 0.83259277 9.75408203 0.56323242 8.78222656 C0 6 0 6 0 0 Z " fill="#247DCC" transform="translate(268,80)"/>
<path d="M0 0 C1.1859375 0.00257812 2.371875 0.00515625 3.59375 0.0078125 C4.7796875 0.00523438 5.965625 0.00265625 7.1875 0 C10.09375 0.1328125 10.09375 0.1328125 11.09375 1.1328125 C11.19402795 3.53090399 11.22993676 5.90020748 11.22314453 8.29882812 C11.22489685 9.04839279 11.22664917 9.79795746 11.22845459 10.57023621 C11.2328732 13.05986819 11.2299351 15.54942973 11.2265625 18.0390625 C11.22723554 19.76159682 11.22820556 21.48413105 11.22946167 23.20666504 C11.23093865 26.82154238 11.22878407 30.43639505 11.22412109 34.05126953 C11.2184238 38.69547743 11.2217028 43.33962754 11.22769356 47.98383331 C11.23129916 51.54217976 11.23016059 55.1005124 11.22756577 58.65885925 C11.22689649 60.37176012 11.22772493 62.08466222 11.23004532 63.79756165 C11.23257183 66.18734072 11.2287313 68.57702491 11.22314453 70.96679688 C11.22516876 71.68163742 11.22719299 72.39647797 11.22927856 73.13298035 C11.20801269 78.01854981 11.20801269 78.01854981 10.09375 79.1328125 C8.07410801 79.20525303 6.05207876 79.21658438 4.03125 79.1953125 C2.92652344 79.18628906 1.82179688 79.17726563 0.68359375 79.16796875 C-0.17105469 79.15636719 -1.02570312 79.14476562 -1.90625 79.1328125 C-2.56625 77.1528125 -3.22625 75.1728125 -3.90625 73.1328125 C-4.37675781 73.55433594 -4.84726562 73.97585937 -5.33203125 74.41015625 C-5.95464844 74.95800781 -6.57726562 75.50585938 -7.21875 76.0703125 C-7.83363281 76.61558594 -8.44851563 77.16085938 -9.08203125 77.72265625 C-12.93586138 80.70174121 -17.23601419 80.59096763 -21.91796875 80.53515625 C-27.87028784 79.73373289 -32.6729118 76.72788857 -36.5703125 72.19921875 C-42.78855723 62.87185166 -42.93487341 51.95473558 -41.90625 41.1328125 C-41.06349173 37.42012067 -39.86287012 34.38955519 -37.90625 31.1328125 C-37.555625 30.54242188 -37.205 29.95203125 -36.84375 29.34375 C-33.61238537 24.78842347 -29.11344504 22.67665425 -23.90625 21.1328125 C-18.30430553 20.21123568 -13.9030088 21.53834159 -8.90625 24.1328125 C-7.55928661 25.11437625 -6.22291517 26.11096584 -4.90625 27.1328125 C-4.86866577 25.95924194 -4.86866577 25.95924194 -4.83032227 24.76196289 C-4.71475212 21.23956301 -4.59185051 17.7174569 -4.46875 14.1953125 C-4.42943359 12.96361328 -4.39011719 11.73191406 -4.34960938 10.46289062 C-4.30771484 9.29306641 -4.26582031 8.12324219 -4.22265625 6.91796875 C-4.18599854 5.83394775 -4.14934082 4.74992676 -4.11157227 3.63305664 C-3.81654985 0.04051858 -3.65519797 0.16703862 0 0 Z " fill="#277ECC" transform="translate(908.90625,79.8671875)"/>
<path d="M0 0 C4.90735413 4.01510792 8.81095573 8.28350751 9.625 14.75 C9.66625 15.905 9.7075 17.06 9.75 18.25 C8.3382217 18.78394179 6.92029756 19.30165104 5.5 19.8125 C4.71109375 20.10253906 3.9221875 20.39257812 3.109375 20.69140625 C0.49521611 21.31032135 -0.79634527 21.32644208 -3.25 20.25 C-4.19924759 18.5151682 -5.14752615 16.77977973 -6.0859375 15.0390625 C-8.16772705 11.8395336 -10.68759997 10.29160139 -14.25 9.25 C-20.18709333 8.53192263 -25.35019664 8.35009315 -30.8125 10.9375 C-36.95237633 16.76251088 -39.8073182 22.12924838 -40.5390625 30.59375 C-40.77131406 40.30608803 -39.78871697 49.62149687 -33.25 57.25 C-28.24638914 61.13035128 -24.27529942 61.88336779 -17.97265625 61.640625 C-12.94005843 60.91858801 -9.12971972 58.94174774 -5.375 55.5625 C-3.62587285 51.96707198 -2.96132944 48.16649623 -2.25 44.25 C-3.46558594 44.26160156 -4.68117188 44.27320313 -5.93359375 44.28515625 C-7.51822764 44.29453278 -9.10286318 44.30363313 -10.6875 44.3125 C-11.89116211 44.32506836 -11.89116211 44.32506836 -13.11914062 44.33789062 C-15.16295221 44.3465143 -17.20683902 44.3022815 -19.25 44.25 C-20.25 43.25 -20.25 43.25 -20.3828125 41 C-20.38023437 40.0925 -20.37765625 39.185 -20.375 38.25 C-20.37886719 36.88875 -20.37886719 36.88875 -20.3828125 35.5 C-20.25 33.25 -20.25 33.25 -19.25 32.25 C-16.97052208 32.1497907 -14.68792865 32.11918697 -12.40625 32.1171875 C-11.72195923 32.11623077 -11.03766846 32.11527405 -10.3326416 32.11428833 C-8.88338123 32.1136067 -7.43411782 32.11545977 -5.98486328 32.11962891 C-3.75937072 32.12497748 -1.53407999 32.1196834 0.69140625 32.11328125 C2.09635461 32.11394203 3.50130285 32.1152232 4.90625 32.1171875 C6.19337891 32.11831543 7.48050781 32.11944336 8.80664062 32.12060547 C11.75 32.25 11.75 32.25 12.75 33.25 C13.50369188 44.36695524 11.62339402 57.49977227 4.1015625 66.14453125 C-3.95004185 73.94965791 -13.16953561 75.88043844 -24.04492188 75.71630859 C-34.1439499 75.27554976 -40.74079987 71.72718788 -48.05078125 64.75 C-57.38055034 54.14422342 -58.05338339 41.06913385 -57.4453125 27.63330078 C-56.58309351 17.11207355 -51.50127297 9.03851096 -43.9375 2 C-30.69991266 -8.7959879 -14.3324362 -7.71746565 0 0 Z " fill="#227CCB" transform="translate(601.25,84.75)"/>
<path d="M0 0 C1.1859375 0.00257812 2.371875 0.00515625 3.59375 0.0078125 C4.7796875 0.00523438 5.965625 0.00265625 7.1875 0 C10.09375 0.1328125 10.09375 0.1328125 11.09375 1.1328125 C11.1821467 3.5084977 11.20905305 5.85489924 11.19140625 8.23046875 C11.1899913 8.93932724 11.18857635 9.64818573 11.18711853 10.37852478 C11.18150443 12.65082962 11.16894963 14.92303725 11.15625 17.1953125 C11.15123681 18.73242046 11.14667359 20.26952995 11.14257812 21.80664062 C11.1323797 25.58209917 11.11280732 29.35734654 11.09375 33.1328125 C21.32375 33.1328125 31.55375 33.1328125 42.09375 33.1328125 C42.08214844 30.83441406 42.07054687 28.53601563 42.05859375 26.16796875 C42.05080291 23.95060362 42.04472631 21.73323999 42.03881836 19.51586914 C42.0337786 17.97061484 42.0269468 16.42536534 42.01831055 14.88012695 C42.00622924 12.66356221 42.00051827 10.44706032 41.99609375 8.23046875 C41.99093246 7.5356691 41.98577118 6.84086945 41.98045349 6.12501526 C41.98025723 4.4605192 42.03185871 2.79615751 42.09375 1.1328125 C43.09375 0.1328125 43.09375 0.1328125 46 0 C47.1859375 0.00257812 48.371875 0.00515625 49.59375 0.0078125 C50.7796875 0.00523438 51.965625 0.00265625 53.1875 0 C56.09375 0.1328125 56.09375 0.1328125 57.09375 1.1328125 C57.19402795 3.53090399 57.22993676 5.90020748 57.22314453 8.29882812 C57.22489685 9.04839279 57.22664917 9.79795746 57.22845459 10.57023621 C57.2328732 13.05986819 57.2299351 15.54942973 57.2265625 18.0390625 C57.22723554 19.76159682 57.22820556 21.48413105 57.22946167 23.20666504 C57.23093865 26.82154238 57.22878407 30.43639505 57.22412109 34.05126953 C57.2184238 38.69547743 57.2217028 43.33962754 57.22769356 47.98383331 C57.23129916 51.54217976 57.23016059 55.1005124 57.22756577 58.65885925 C57.22689649 60.37176012 57.22772493 62.08466222 57.23004532 63.79756165 C57.23257183 66.18734072 57.2287313 68.57702491 57.22314453 70.96679688 C57.22516876 71.68163742 57.22719299 72.39647797 57.22927856 73.13298035 C57.20801269 78.01854981 57.20801269 78.01854981 56.09375 79.1328125 C53.92894203 79.2317419 51.76081215 79.2625235 49.59375 79.2578125 C48.4078125 79.26039063 47.221875 79.26296875 46 79.265625 C43.09375 79.1328125 43.09375 79.1328125 42.09375 78.1328125 C42.00531207 75.68450824 41.97846248 73.26460651 41.99609375 70.81640625 C41.9975087 70.08535172 41.99892365 69.35429718 42.00038147 68.60108948 C42.00599592 66.25745618 42.01855078 63.91391711 42.03125 61.5703125 C42.03626314 59.98502742 42.04082637 58.39974084 42.04492188 56.81445312 C42.05512079 52.92050707 42.07469313 49.02676573 42.09375 45.1328125 C31.86375 45.1328125 21.63375 45.1328125 11.09375 45.1328125 C11.10535156 47.50339844 11.11695313 49.87398437 11.12890625 52.31640625 C11.13669696 54.60327012 11.14277364 56.89013254 11.14868164 59.17700195 C11.15372157 60.77075864 11.1605535 62.36451069 11.16918945 63.95825195 C11.18126999 66.24431503 11.18698155 68.53031717 11.19140625 70.81640625 C11.19656754 71.53307968 11.20172882 72.24975311 11.20704651 72.98814392 C11.20724263 74.70344922 11.15567007 76.41862516 11.09375 78.1328125 C10.09375 79.1328125 10.09375 79.1328125 7.1875 79.265625 C6.0015625 79.26304687 4.815625 79.26046875 3.59375 79.2578125 C2.4078125 79.26039063 1.221875 79.26296875 0 79.265625 C-2.90625 79.1328125 -2.90625 79.1328125 -3.90625 78.1328125 C-4.00652795 75.73472101 -4.04243676 73.36541752 -4.03564453 70.96679688 C-4.03739685 70.21723221 -4.03914917 69.46766754 -4.04095459 68.69538879 C-4.0453732 66.20575681 -4.0424351 63.71619527 -4.0390625 61.2265625 C-4.03973554 59.50402818 -4.04070556 57.78149395 -4.04196167 56.05895996 C-4.04343865 52.44408262 -4.04128407 48.82922995 -4.03662109 45.21435547 C-4.0309238 40.57014757 -4.0342028 35.92599746 -4.04019356 31.28179169 C-4.04379916 27.72344524 -4.04266059 24.1651126 -4.04006577 20.60676575 C-4.03939649 18.89386488 -4.04022493 17.18096278 -4.04254532 15.46806335 C-4.04507183 13.07828428 -4.0412313 10.68860009 -4.03564453 8.29882812 C-4.03766876 7.58398758 -4.03969299 6.86914703 -4.04177856 6.13264465 C-4.01588326 0.18352155 -4.01588326 0.18352155 0 0 Z " fill="#267FCC" transform="translate(687.90625,79.8671875)"/>
<path d="M0 0 C6.77369533 5.16905294 9.96040327 11.28327354 12.01171875 19.53515625 C12.41523942 22.62208935 12.36595682 25.44664306 12.01171875 28.53515625 C11.92921875 29.27507812 11.84671875 30.015 11.76171875 30.77734375 C10.53349139 38.172296 6.66656045 44.32354865 1.19921875 49.41015625 C-6.29437324 54.40588424 -14.07010608 55.61578733 -22.98828125 54.53515625 C-31.00762563 52.17652555 -36.70589065 47.86572383 -40.91796875 40.66015625 C-44.71740418 33.1167516 -45.30066112 23.98899836 -43.3359375 15.82421875 C-40.71042608 8.49983067 -36.21963743 2.27151918 -29.61328125 -1.96484375 C-20.80751458 -5.80016791 -8.13287938 -4.95705212 0 0 Z " fill="#237CCB" transform="translate(663.98828125,105.46484375)"/>
<path d="M0 0 C6.74955892 5.00166518 11.51559029 11.09278328 12.9609375 19.453125 C13.96188338 28.11845647 12.55264679 37.96347543 7.7734375 45.390625 C3.62680955 50.51146072 -2.64239531 54.09998386 -9.0390625 55.453125 C-17.98835894 56.29862539 -25.71282441 55.39924382 -33.07421875 49.9453125 C-39.04757605 44.49192898 -42.48313202 37.07622506 -43.27734375 29.04296875 C-43.53175835 19.95099453 -41.58785065 12.2193357 -35.8515625 5.015625 C-27.04049822 -3.99905631 -11.22352279 -6.10628443 0 0 Z " fill="#237CCB" transform="translate(796.0390625,104.546875)"/>
<path d="M0 0 C0.74475586 0.00757324 1.48951172 0.01514648 2.25683594 0.02294922 C9.00114174 0.22372495 15.13527534 1.27432851 20.328125 5.8984375 C25.68149793 11.95944018 26.1433509 16.95186988 25.98828125 24.8359375 C24.83578049 38.63601149 14.66298324 46.97345361 4.6875 55.4375 C-0.7575 60.3875 -0.7575 60.3875 -6.3125 65.4375 C10.0225 65.9325 10.0225 65.9325 26.6875 66.4375 C26.6875 70.3975 26.6875 74.3575 26.6875 78.4375 C25.02033316 80.10466684 23.0144386 79.56494882 20.72460938 79.56689453 C19.66681274 79.57004669 18.60901611 79.57319885 17.51916504 79.57644653 C16.36815308 79.5744223 15.21714111 79.57239807 14.03125 79.5703125 C12.27234436 79.57174759 12.27234436 79.57174759 10.47790527 79.57321167 C7.99291938 79.5738937 5.50793171 79.57203784 3.02294922 79.56787109 C-0.79593887 79.56252319 -4.61470935 79.56781536 -8.43359375 79.57421875 C-10.84114609 79.57355797 -13.24869837 79.57227682 -15.65625 79.5703125 C-17.38276794 79.57334885 -17.38276794 79.57334885 -19.14416504 79.57644653 C-20.20196167 79.57329437 -21.2597583 79.57014221 -22.34960938 79.56689453 C-23.75406311 79.56570114 -23.75406311 79.56570114 -25.18688965 79.56448364 C-27.3125 79.4375 -27.3125 79.4375 -28.3125 78.4375 C-29.30622373 74.87354347 -29.27843337 72.00909753 -28.3125 68.4375 C-24.78899506 63.89660456 -20.65784685 60.17865827 -16.3125 56.4375 C-15.26255859 55.51710938 -15.26255859 55.51710938 -14.19140625 54.578125 C-12.97046523 53.51735043 -11.74644813 52.46010703 -10.51953125 51.40625 C-7.46034385 48.67734655 -4.4998928 45.85913841 -1.5625 43 C-1.00699463 42.47414307 -0.45148926 41.94828613 0.12084961 41.40649414 C4.61865907 36.97401827 8.03195034 32.14857772 9.1484375 25.828125 C9.12007812 25.12171875 9.09171875 24.4153125 9.0625 23.6875 C9.04960938 22.97078125 9.03671875 22.2540625 9.0234375 21.515625 C8.63994463 19.1433203 7.93460397 17.48662843 6.6875 15.4375 C2.81243787 12.97155137 -0.84521212 13.26627888 -5.23046875 13.90625 C-8.31005469 14.69203553 -9.52560006 15.82587702 -11.3125 18.4375 C-12.45031567 20.74281348 -13.3872128 23.03175328 -14.3125 25.4375 C-15.91745567 25.32307539 -17.52148119 25.19555306 -19.125 25.0625 C-20.01832031 24.99289063 -20.91164063 24.92328125 -21.83203125 24.8515625 C-24.3125 24.4375 -24.3125 24.4375 -27.3125 22.4375 C-26.55228026 14.64524765 -23.12854763 9.74624808 -17.38671875 4.796875 C-11.63932142 1.03021913 -6.751871 -0.09619355 0 0 Z " fill="#247CCB" transform="translate(510.3125,79.5625)"/>
<path d="M0 0 C4.84706145 3.71264281 8.38859765 9.13926929 9.35635376 15.25021362 C9.4754164 17.67511957 9.4769493 20.06885634 9.42578125 22.49609375 C9.42249313 23.37024429 9.41920502 24.24439484 9.41581726 25.14503479 C9.40546196 26.97624256 9.38562479 28.8074193 9.35668945 30.63842773 C9.31224275 33.45379491 9.29519097 36.2683082 9.28320312 39.08398438 C9.26979308 40.86719995 9.25487401 42.65040495 9.23828125 44.43359375 C9.23089432 45.2782872 9.22350739 46.12298065 9.21589661 46.99327087 C9.11836752 52.88163248 9.11836752 52.88163248 8 54 C4.29307853 54.4226132 0.69828488 54.51963943 -3 54 C-5.1875 51.5 -5.1875 51.5 -6 49 C-7.3921875 50.2065625 -7.3921875 50.2065625 -8.8125 51.4375 C-13.22970519 55.2657445 -17.41472526 55.34476518 -23.078125 55.27734375 C-29.07745672 54.70788847 -34.01505532 52.50310805 -38 47.9375 C-41.59597953 42.65590506 -42.04397829 37.22991925 -41 31 C-38.07216562 25.87010427 -34.58027754 22.86823624 -29 21 C-26.22924805 20.77294922 -26.22924805 20.77294922 -23.26171875 20.8046875 C-21.66166992 20.81435547 -21.66166992 20.81435547 -20.02929688 20.82421875 C-18.92650391 20.84097656 -17.82371094 20.85773438 -16.6875 20.875 C-15.56537109 20.88402344 -14.44324219 20.89304687 -13.28710938 20.90234375 C-10.52452091 20.92585514 -7.76237068 20.95871845 -5 21 C-5.29422737 19.54163116 -5.5965532 18.08489442 -5.90234375 16.62890625 C-6.06984131 15.81752197 -6.23733887 15.0061377 -6.40991211 14.17016602 C-6.88681173 11.88262593 -6.88681173 11.88262593 -8.5625 9.9375 C-12.39187863 8.46466207 -15.96790143 8.2022051 -20 9 C-23.02409364 11.27127334 -23.02409364 11.27127334 -25 14 C-26.65653686 15.65653686 -28.60650796 15.17106165 -30.875 15.1875 C-31.75929688 15.20167969 -32.64359375 15.21585938 -33.5546875 15.23046875 C-36 15 -36 15 -39 13 C-38.46036658 8.41311596 -36.95371499 5.54445798 -34 2 C-22.99407537 -5.5463417 -11.98842833 -5.91661916 0 0 Z " fill="#237CCB" transform="translate(408,105)"/>
<path d="M0 0 C4.3638584 3.01608911 7.91336368 6.05526584 10 11 C10.24050903 13.15142822 10.24050903 13.15142822 10.22705078 15.49316406 C10.22689972 16.37377502 10.22674866 17.25438599 10.22659302 18.16168213 C10.21627045 19.10348328 10.20594788 20.04528442 10.1953125 21.015625 C10.1924826 21.98659119 10.18965271 22.95755737 10.18673706 23.95794678 C10.17555292 27.05542385 10.15045142 30.1526105 10.125 33.25 C10.11496792 35.35155832 10.10584247 37.45312118 10.09765625 39.5546875 C10.07561934 44.70323669 10.04110145 49.85156913 10 55 C6.04 55 2.08 55 -2 55 C-2.66 53.35 -3.32 51.7 -4 50 C-5.3921875 51.2065625 -5.3921875 51.2065625 -6.8125 52.4375 C-11.44798633 56.45492148 -15.99091111 56.34181075 -21.921875 56.27734375 C-27.9086505 55.73792616 -32.03899999 53.39371593 -35.9375 48.875 C-39.79697993 43.49511888 -40.00180776 38.51582286 -39 32 C-36.12638508 26.81939846 -32.58296891 23.87362681 -27 22 C-24.22924805 21.77294922 -24.22924805 21.77294922 -21.26171875 21.8046875 C-19.66166992 21.81435547 -19.66166992 21.81435547 -18.02929688 21.82421875 C-16.92650391 21.84097656 -15.82371094 21.85773438 -14.6875 21.875 C-13.56537109 21.88402344 -12.44324219 21.89304687 -11.28710938 21.90234375 C-8.52452091 21.92585514 -5.76237068 21.95871845 -3 22 C-3.42369072 20.3713449 -3.8644623 18.74712622 -4.3125 17.125 C-4.55613281 16.22007813 -4.79976562 15.31515625 -5.05078125 14.3828125 C-5.86669852 11.67886681 -5.86669852 11.67886681 -9 10 C-12.06475543 9.45477197 -14.93524839 9.45157076 -18 10 C-21.02409364 12.27127334 -21.02409364 12.27127334 -23 15 C-24.65653686 16.65653686 -26.60650796 16.17106165 -28.875 16.1875 C-29.75929688 16.20167969 -30.64359375 16.21585938 -31.5546875 16.23046875 C-34 16 -34 16 -37 14 C-36.62739013 8.78346177 -34.91548765 5.40685813 -31 2 C-21.25055224 -4.09340485 -10.53666031 -4.83705433 0 0 Z " fill="#227BCB" transform="translate(966,104)"/>
<path d="M0 0 C1.93166016 0.01740234 1.93166016 0.01740234 3.90234375 0.03515625 C5.19269531 0.04417969 6.48304688 0.05320312 7.8125 0.0625 C8.81152344 0.07410156 9.81054688 0.08570312 10.83984375 0.09765625 C14.49436349 8.5627862 17.68544178 17.11973164 20.65234375 25.84765625 C21.05904297 27.03359375 21.46574219 28.21953125 21.88476562 29.44140625 C22.87331334 32.32563957 23.85827894 35.21104067 24.83984375 38.09765625 C25.22841553 36.98205322 25.6169873 35.8664502 26.01733398 34.71704102 C27.45501998 30.59183667 28.89648285 26.46796066 30.33911133 22.34448242 C30.96384716 20.55708444 31.58754779 18.76932429 32.21020508 16.98120117 C33.10358357 14.41620277 34.00063473 11.85251512 34.8984375 9.2890625 C35.17763535 8.48489395 35.45683319 7.6807254 35.74449158 6.85218811 C37.72597204 1.21152796 37.72597204 1.21152796 38.83984375 0.09765625 C41.02623828 0.02506679 43.21484764 0.01391842 45.40234375 0.03515625 C47.19865234 0.04869141 47.19865234 0.04869141 49.03125 0.0625 C49.95808594 0.07410156 50.88492187 0.08570312 51.83984375 0.09765625 C51.28849902 7.00244543 48.80463681 13.03758214 46.32421875 19.4609375 C45.64495331 21.24167915 45.64495331 21.24167915 44.95196533 23.05839539 C43.99375927 25.56533488 43.03280724 28.0709938 42.06689453 30.57495117 C40.84035019 33.75531612 39.62480433 36.93974294 38.4128685 40.12569904 C37.24283254 43.19782952 36.06450142 46.26677029 34.88671875 49.3359375 C34.45631287 50.46542313 34.02590698 51.59490875 33.5824585 52.75862122 C25.83170443 72.79962934 25.83170443 72.79962934 17.03515625 78.20703125 C14.19075701 79.36098682 11.83954952 79.36283447 8.77734375 79.34765625 C7.73449219 79.3528125 6.69164062 79.35796875 5.6171875 79.36328125 C2.83984375 79.09765625 2.83984375 79.09765625 -0.16015625 77.09765625 C-0.48828125 75.22265625 -0.48828125 75.22265625 -0.41015625 73.09765625 C-0.3946875 72.39640625 -0.37921875 71.69515625 -0.36328125 70.97265625 C-0.16015625 69.09765625 -0.16015625 69.09765625 0.83984375 67.09765625 C3.35947797 66.74093384 5.85317618 66.65390508 8.39453125 66.5390625 C11.31665529 66.01158643 11.94418751 65.31886126 13.83984375 63.09765625 C16.06549905 59.30711624 17.16758696 55.80158172 16.32678223 51.43026733 C15.28538211 48.42501179 14.08396366 45.54741568 12.79296875 42.640625 C12.34717468 41.57524002 11.90138062 40.50985504 11.44207764 39.41218567 C10.01795827 36.02448942 8.55521949 32.65518348 7.08984375 29.28515625 C5.6478913 25.89392442 4.2138616 22.49942022 2.78045654 19.10456848 C1.88701301 16.99704354 0.98688679 14.8923364 0.07940674 12.79081726 C-0.33061584 11.83915176 -0.74063843 10.88748627 -1.16308594 9.90698242 C-1.52521179 9.07253098 -1.88733765 8.23807953 -2.26043701 7.37834167 C-3.08770069 5.2813228 -3.76623556 3.31733358 -4.16015625 1.09765625 C-3.16015625 0.09765625 -3.16015625 0.09765625 0 0 Z " fill="#227BCB" transform="translate(984.16015625,102.90234375)"/>
<path d="M0 0 C4.95 0 9.9 0 15 0 C15.38857178 1.08531006 15.77714355 2.17062012 16.17749023 3.28881836 C17.61523711 7.3022127 19.05668184 11.31427041 20.49926758 15.32592773 C21.12398162 17.06482083 21.74768228 18.80407833 22.37036133 20.54370117 C23.26379639 23.03920675 24.16082716 25.53339371 25.05859375 28.02734375 C25.3377916 28.80963852 25.61698944 29.59193329 25.90464783 30.39793396 C26.97993259 33.97139947 26.97993259 33.97139947 29 37 C33.29 24.79 37.58 12.58 42 0 C46.29 0 50.58 0 55 0 C56.18344925 3.55034775 55.77169706 4.29379438 54.46459961 7.69238281 C53.92294411 9.12097626 53.92294411 9.12097626 53.37034607 10.57843018 C52.9684053 11.60957947 52.56646454 12.64072876 52.15234375 13.703125 C51.53897911 15.30809845 51.53897911 15.30809845 50.91322327 16.94549561 C49.59668221 20.38374228 48.26715332 23.81680578 46.9375 27.25 C46.06752981 29.51791112 45.19837973 31.78613702 44.33007812 34.0546875 C42.26765998 39.43478185 40.18650388 44.80733659 38.09561157 50.17642212 C37.11502721 52.70355525 36.14649404 55.23486462 35.18237305 57.76831055 C34.66627179 59.1048168 34.14979084 60.44117652 33.6328125 61.77734375 C33.21273926 62.87554443 32.79266602 63.97374512 32.35986328 65.10522461 C29.79771486 70.55933481 26.0394885 75.46045452 20.6015625 78.21484375 C17.75786967 79.07307537 15.4037842 79.26650228 12.4375 79.25 C11.50808594 79.25515625 10.57867187 79.2603125 9.62109375 79.265625 C6.9445538 78.99438101 5.29561718 78.36116595 3 77 C3.14049518 75.52031676 3.28754826 74.04125484 3.4375 72.5625 C3.51871094 71.73878906 3.59992188 70.91507812 3.68359375 70.06640625 C4 68 4 68 5 67 C6.58325051 66.97361249 8.1666145 66.953896 9.75 66.9375 C12.85573906 66.66163206 14.45795418 66.49906421 16.7734375 64.3671875 C19.58189577 60.09768158 20.28436585 57.14094237 20 52 C19.17065191 49.23418943 19.17065191 49.23418943 17.91015625 46.5 C17.45938721 45.4579541 17.00861816 44.4159082 16.54418945 43.34228516 C15.81075317 41.687854 15.81075317 41.687854 15.0625 40 C14.05633372 37.67489347 13.05114269 35.3493647 12.046875 33.0234375 C11.53833984 31.85393555 11.02980469 30.68443359 10.50585938 29.47949219 C8.22711484 24.21414407 6.00701915 18.92591816 3.8125 13.625 C3.42650635 12.71105469 3.0405127 11.79710938 2.64282227 10.85546875 C2.29276123 10.00855469 1.9427002 9.16164063 1.58203125 8.2890625 C1.27499268 7.55381348 0.9679541 6.81856445 0.65161133 6.06103516 C0 4 0 4 0 0 Z " fill="#227CCB" transform="translate(421,103)"/>
<path d="M0 0 C3.53234596 2.24351703 5.9343689 4.90155335 8.25 8.375 C8.25 9.695 8.25 11.015 8.25 12.375 C7.00336669 12.88333591 5.75250613 13.38131145 4.5 13.875 C3.45585938 14.29265625 3.45585938 14.29265625 2.390625 14.71875 C0.25 15.375 0.25 15.375 -3.75 15.375 C-4.471875 14.55 -5.19375 13.725 -5.9375 12.875 C-9.4237185 9.77613911 -11.17920395 9.87379943 -15.6640625 10.00390625 C-18.04782631 10.28438062 -18.04782631 10.28438062 -20.75 12.375 C-21.25 14.875 -21.25 14.875 -20.75 17.375 C-17.23908521 19.71560986 -14.12817543 20.07004062 -10.0625 20.6875 C-2.09654066 22.05169281 3.2149324 24.03642564 8.75 30.125 C11.21383929 35.46331847 11.03145338 40.03063986 9.1875 45.5625 C5.45790442 50.97642907 1.21330618 54.88640736 -5.45703125 56.125 C-15.86659994 57.25994446 -24.65123721 56.41791715 -33.25 50 C-35.93547137 47.18025506 -36.87555145 45.13512875 -37.75 41.375 C-34.35630502 38.60976706 -31.0932768 36.24109847 -26.5625 36.5 C-24.75 37.375 -24.75 37.375 -23.875 39.25 C-22.16168662 42.48625861 -20.13577024 43.12101102 -16.75 44.375 C-12.96986451 44.91294236 -9.76417743 44.85673428 -6.25 43.1875 C-4.49950889 41.41886734 -4.49950889 41.41886734 -4.5 38.6875 C-4.5825 37.924375 -4.665 37.16125 -4.75 36.375 C-9.27006484 34.06240869 -13.13289447 33.11125462 -18.1875 32.5 C-25.25445917 31.51599303 -29.93089834 29.45839244 -34.75 24.1875 C-36.48104521 19.31893535 -36.69704698 14.3006987 -35.09375 9.34765625 C-29.02192479 -2.61279254 -11.55233744 -5.3643802 0 0 Z " fill="#237BCC" transform="translate(1074.75,103.625)"/>
<path d="M0 0 C1.093125 0.00257812 2.18625 0.00515625 3.3125 0.0078125 C4.405625 0.00523438 5.49875 0.00265625 6.625 0 C9.3125 0.1328125 9.3125 0.1328125 10.3125 1.1328125 C10.41277795 3.53090399 10.44868676 5.90020748 10.44189453 8.29882812 C10.44364685 9.04839279 10.44539917 9.79795746 10.44720459 10.57023621 C10.4516232 13.05986819 10.4486851 15.54942973 10.4453125 18.0390625 C10.44598554 19.76159682 10.44695556 21.48413105 10.44821167 23.20666504 C10.44968865 26.82154238 10.44753407 30.43639505 10.44287109 34.05126953 C10.4371738 38.69547743 10.4404528 43.33962754 10.44644356 47.98383331 C10.45004916 51.54217976 10.44891059 55.1005124 10.44631577 58.65885925 C10.44564649 60.37176012 10.44647493 62.08466222 10.44879532 63.79756165 C10.45132183 66.18734072 10.4474813 68.57702491 10.44189453 70.96679688 C10.44391876 71.68163742 10.44594299 72.39647797 10.44802856 73.13298035 C10.42676269 78.01854981 10.42676269 78.01854981 9.3125 79.1328125 C7.31450428 79.23155066 5.31292842 79.26253049 3.3125 79.2578125 C2.219375 79.26039063 1.12625 79.26296875 0 79.265625 C-2.6875 79.1328125 -2.6875 79.1328125 -3.6875 78.1328125 C-3.78777795 75.73472101 -3.82368676 73.36541752 -3.81689453 70.96679688 C-3.81864685 70.21723221 -3.82039917 69.46766754 -3.82220459 68.69538879 C-3.8266232 66.20575681 -3.8236851 63.71619527 -3.8203125 61.2265625 C-3.82098554 59.50402818 -3.82195556 57.78149395 -3.82321167 56.05895996 C-3.82468865 52.44408262 -3.82253407 48.82922995 -3.81787109 45.21435547 C-3.8121738 40.57014757 -3.8154528 35.92599746 -3.82144356 31.28179169 C-3.82504916 27.72344524 -3.82391059 24.1651126 -3.82131577 20.60676575 C-3.82064649 18.89386488 -3.82147493 17.18096278 -3.82379532 15.46806335 C-3.82632183 13.07828428 -3.8224813 10.68860009 -3.81689453 8.29882812 C-3.81891876 7.58398758 -3.82094299 6.86914703 -3.82302856 6.13264465 C-3.79715123 0.18764992 -3.79715123 0.18764992 0 0 Z " fill="#257ECC" transform="translate(820.6875,79.8671875)"/>
<path d="M0 0 C1.79244141 0.01740234 1.79244141 0.01740234 3.62109375 0.03515625 C5.41740234 0.04869141 5.41740234 0.04869141 7.25 0.0625 C8.17683594 0.07410156 9.10367188 0.08570312 10.05859375 0.09765625 C10.08385938 7.91218377 10.1014248 15.72670083 10.11352539 23.54125977 C10.11856758 26.20207106 10.12540111 28.86287957 10.1340332 31.52368164 C10.14610384 35.33871141 10.15182304 39.15370469 10.15625 42.96875 C10.16141129 44.16664658 10.16657257 45.36454315 10.17189026 46.59873962 C10.17196579 47.69980545 10.17204132 48.80087128 10.17211914 49.93530273 C10.17433975 50.91015121 10.17656036 51.88499969 10.17884827 52.88938904 C10.05859375 55.09765625 10.05859375 55.09765625 9.05859375 56.09765625 C7.06059803 56.19639441 5.05902217 56.22737424 3.05859375 56.22265625 C1.96546875 56.22523438 0.87234375 56.2278125 -0.25390625 56.23046875 C-2.94140625 56.09765625 -2.94140625 56.09765625 -3.94140625 55.09765625 C-4.04015795 53.4151039 -4.06939529 51.72841597 -4.07080078 50.04296875 C-4.07395294 48.96515137 -4.0771051 47.88733398 -4.08035278 46.77685547 C-4.07832855 45.60396973 -4.07630432 44.43108398 -4.07421875 43.22265625 C-4.07517548 42.02785645 -4.0761322 40.83305664 -4.07711792 39.60205078 C-4.07779996 37.06998645 -4.07594403 34.53792037 -4.07177734 32.00585938 C-4.06642946 28.11454365 -4.07172158 24.22334336 -4.078125 20.33203125 C-4.07746422 17.87890599 -4.07618307 15.42578081 -4.07421875 12.97265625 C-4.07624298 11.79977051 -4.07826721 10.62688477 -4.08035278 9.41845703 C-4.07720062 8.34063965 -4.07404846 7.26282227 -4.07080078 6.15234375 C-4.07000519 5.19827637 -4.06920959 4.24420898 -4.06838989 3.26123047 C-3.87048417 -0.11072915 -3.43845727 0.11415861 0 0 Z " fill="#267DCB" transform="translate(846.94140625,102.90234375)"/>
<path d="M0 0 C4.68133483 2.24704072 7.23500413 4.93261434 9.3046875 9.59375 C11.37917985 16.77289208 10.8154554 23.82862397 7.265625 30.37890625 C5.08031119 33.17799647 3.13481764 34.79517926 -0.40234375 35.43359375 C-4.45781613 35.43984255 -7.27953053 35.3678993 -10.9375 33.5 C-15.64239208 27.7971005 -16.577524 21.88944809 -16.34765625 14.68359375 C-15.60211347 8.92867366 -13.4723497 5.28030409 -9.125 1.5 C-5.60894516 -0.18770632 -3.84031041 -0.64005173 0 0 Z " fill="#FAFCFD" transform="translate(784,113)"/>
<path d="M0 0 C3.8194953 2.20681951 5.93805302 4.71556472 7.4921875 8.88671875 C9.20082916 15.99729672 8.53274007 22.6905757 5.1875 29.18359375 C3.40444133 31.91096967 2.10954556 32.96348481 -1 34 C-5.47008096 34.63509347 -8.82995259 34.61045952 -12.875 32.5 C-17.95823477 26.5197238 -18.50521391 20.37021074 -18.28515625 12.7734375 C-17.76687626 7.73263208 -16.149311 5.0371831 -12.4375 1.6875 C-8.12116774 -1.30073002 -5.0400847 -1.23094376 0 0 Z " fill="#FAFCFD" transform="translate(653,114)"/>
<path d="M0 0 C4.08802286 0.69191691 5.7540796 2.38100042 8.515625 5.42578125 C9.77089904 9.19160337 9.77779735 12.75022451 9.828125 16.67578125 C9.85712891 17.41441406 9.88613281 18.15304688 9.91601562 18.9140625 C9.9807088 24.55729772 8.75822546 27.790945 5.515625 32.42578125 C1.92117614 34.60136872 -1.3372961 34.93358683 -5.484375 34.42578125 C-8.69951586 32.75638119 -10.88155255 31.53129632 -12.63671875 28.3125 C-13.76593403 24.46692354 -13.81409058 20.91291043 -13.796875 16.92578125 C-13.81298828 16.17941406 -13.82910156 15.43304688 -13.84570312 14.6640625 C-13.85065821 9.06482122 -12.55404304 6.08428442 -9.09765625 1.64453125 C-6.27423279 -0.48841819 -3.41559081 -0.09487752 0 0 Z " fill="#FCFDFE" transform="translate(895.484375,113.57421875)"/>
<path d="M0 0 C0.33 0 0.66 0 1 0 C1.0231241 10.02227763 1.04091543 20.04454897 1.05181217 30.0668478 C1.05704085 34.72011186 1.06413823 39.37335774 1.07543945 44.02661133 C1.08626886 48.51344546 1.09227695 53.00026204 1.09487724 57.48710823 C1.0967314 59.20280293 1.10035182 60.91849662 1.10573006 62.63418388 C1.11294121 65.02884913 1.11399091 67.42344096 1.11352539 69.81811523 C1.11712067 70.53452682 1.12071594 71.25093842 1.12442017 71.98905945 C1.11405216 76.88594784 1.11405216 76.88594784 0 78 C-2.16480797 78.0989294 -4.33293785 78.129711 -6.5 78.125 C-7.6859375 78.12757813 -8.871875 78.13015625 -10.09375 78.1328125 C-13 78 -13 78 -14 77 C-14.08843793 74.55169574 -14.11528752 72.13179401 -14.09765625 69.68359375 C-14.0962413 68.95253922 -14.09482635 68.22148468 -14.09336853 67.46827698 C-14.08775408 65.12464368 -14.07519922 62.78110461 -14.0625 60.4375 C-14.05748686 58.85221492 -14.05292363 57.26692834 -14.04882812 55.68164062 C-14.03862921 51.78769457 -14.01905687 47.89395323 -14 44 C-24.23 44 -34.46 44 -45 44 C-45 54.89 -45 65.78 -45 77 C-45.33 77 -45.66 77 -46 77 C-46 65.78 -46 54.56 -46 43 C-40.575625 42.979375 -35.15125 42.95875 -29.5625 42.9375 C-27.84877197 42.928396 -26.13504395 42.91929199 -24.36938477 42.90991211 C-23.01839273 42.90699284 -21.66739981 42.90444431 -20.31640625 42.90234375 C-19.60899292 42.89722778 -18.90157959 42.89211182 -18.17272949 42.88684082 C-16.44807383 42.88652968 -14.72353162 42.93774239 -13 43 C-12 44 -12 44 -11.88647461 46.95922852 C-11.89171143 48.25272217 -11.89694824 49.54621582 -11.90234375 50.87890625 C-11.9037587 51.5655687 -11.90517365 52.25223114 -11.90663147 52.95970154 C-11.91224521 55.16067801 -11.92479993 57.36155409 -11.9375 59.5625 C-11.94251324 61.05143083 -11.94707645 62.54036324 -11.95117188 64.02929688 C-11.96221907 67.68623075 -11.97949287 71.34310558 -12 75 C-8.7 75 -5.4 75 -2 75 C-2.00444122 74.10464035 -2.00888245 73.2092807 -2.01345825 72.28678894 C-2.05350608 63.85538429 -2.08396969 55.42401152 -2.10362434 46.99253368 C-2.11406862 42.65766027 -2.12823953 38.32286535 -2.15087891 33.98803711 C-2.17258438 29.80592895 -2.18456378 25.62389636 -2.18975449 21.44173622 C-2.19345438 19.84491091 -2.2006792 18.24808982 -2.21146011 16.65129662 C-2.22594465 14.41742335 -2.22797924 12.18386372 -2.22705078 9.94995117 C-2.231492 8.67754074 -2.23593323 7.40513031 -2.24050903 6.09416199 C-2 3 -2 3 0 0 Z " fill="#2F83CE" transform="translate(744,81)"/>
<path d="M0 0 C0.84755859 0.00966797 1.69511719 0.01933594 2.56835938 0.02929688 C3.44943359 0.05443359 4.33050781 0.07957031 5.23828125 0.10546875 C6.13095703 0.11900391 7.02363281 0.13253906 7.94335938 0.14648438 C10.14644291 0.18182796 12.34830707 0.23116382 14.55078125 0.29296875 C13.85546875 7.92578125 13.85546875 7.92578125 11.11328125 11.23046875 C7.45950372 14.17131408 5.31549392 14.5710838 0.58984375 14.51953125 C-2.32090223 14.19611503 -4.17298759 13.086363 -6.44921875 11.29296875 C-7.84856888 8.49426848 -7.7018728 6.38798083 -7.44921875 3.29296875 C-5.23986049 0.30604191 -3.63439931 -0.07317582 0 0 Z " fill="#F8FBFD" transform="translate(388.44921875,134.70703125)"/>
<path d="M0 0 C0.84755859 0.00966797 1.69511719 0.01933594 2.56835938 0.02929688 C3.44943359 0.05443359 4.33050781 0.07957031 5.23828125 0.10546875 C6.13095703 0.11900391 7.02363281 0.13253906 7.94335938 0.14648438 C10.14644291 0.18182796 12.34830707 0.23116382 14.55078125 0.29296875 C13.88267305 6.54349213 12.89985423 8.94389577 8.55078125 13.29296875 C4.97443812 14.48508313 2.31013442 14.55223449 -1.44921875 14.29296875 C-3.76201486 13.13657069 -5.62331703 12.11887047 -7.44921875 10.29296875 C-7.91963776 3.94231217 -7.91963776 3.94231217 -6.21166992 1.5847168 C-3.97833843 -0.05215215 -2.74842954 -0.05533751 0 0 Z " fill="#F9FBFD" transform="translate(948.44921875,134.70703125)"/>
<path d="M0 0 C3.4203866 1.17013226 3.91540482 1.87310723 6 5 C5.77744907 11.23142591 5.77744907 11.23142591 3.2890625 13.69140625 C-0.87159566 16.0699395 -5.35860466 15.62683488 -10 15 C-12.6875 13.375 -12.6875 13.375 -14 11 C-14.5 8 -14.5 8 -14 5 C-9.92165752 -0.02995573 -6.27266226 -0.49783034 0 0 Z " fill="#227ACA" transform="translate(854,79)"/>
<path d="M0 0 C1.093125 0.00257812 2.18625 0.00515625 3.3125 0.0078125 C4.405625 0.00523438 5.49875 0.00265625 6.625 0 C9.3125 0.1328125 9.3125 0.1328125 10.3125 1.1328125 C10.40679342 3.31086969 10.42992538 5.4920253 10.42602539 7.67211914 C10.42617142 8.35501511 10.42631744 9.03791107 10.4264679 9.74150085 C10.42576876 12.00868864 10.4179764 14.27579524 10.41015625 16.54296875 C10.40829207 18.11095637 10.40686817 19.67894457 10.40586853 21.24693298 C10.40204334 25.38157753 10.39221306 29.51618716 10.38116455 33.65081787 C10.37095044 37.86681648 10.36637091 42.08282072 10.36132812 46.29882812 C10.35059079 54.57683897 10.33351436 62.8548214 10.3125 71.1328125 C9.9825 71.1328125 9.6525 71.1328125 9.3125 71.1328125 C9.3125 48.3628125 9.3125 25.5928125 9.3125 2.1328125 C5.6825 2.1328125 2.0525 2.1328125 -1.6875 2.1328125 C-1.6875 26.8828125 -1.6875 51.6328125 -1.6875 77.1328125 C-2.6775 77.6278125 -2.6775 77.6278125 -3.6875 78.1328125 C-3.7106241 68.11053487 -3.72841543 58.08826353 -3.73931217 48.0659647 C-3.74454085 43.41270064 -3.75163823 38.75945476 -3.76293945 34.10620117 C-3.77376886 29.61936704 -3.77977695 25.13255046 -3.78237724 20.64570427 C-3.7842314 18.93000957 -3.78785182 17.21431588 -3.79323006 15.49862862 C-3.80044121 13.10396337 -3.80149091 10.70937154 -3.80102539 8.31469727 C-3.80462067 7.59828568 -3.80821594 6.88187408 -3.81192017 6.14375305 C-3.79930975 0.18775659 -3.79930975 0.18775659 0 0 Z " fill="#0D6DC7" transform="translate(820.6875,79.8671875)"/>
<path d="M0 0 C4.29 0 8.58 0 13 0 C13 10.89 13 21.78 13 33 C12.67 33 12.34 33 12 33 C12 22.77 12 12.54 12 2 C8.37 2 4.74 2 1 2 C1 26.75 1 51.5 1 77 C-1.15027298 72.69945405 -1.24823425 70.67807018 -1.24291992 65.95239258 C-1.24576744 64.90054024 -1.24576744 64.90054024 -1.24867249 63.82743835 C-1.2523687 61.51635457 -1.24169528 59.20558696 -1.23046875 56.89453125 C-1.2292765 55.2883864 -1.22882388 53.68224085 -1.2290802 52.07609558 C-1.2275175 48.71450419 -1.21924199 45.35301961 -1.20581055 41.99145508 C-1.18877995 37.67353615 -1.18499748 33.35573412 -1.18575573 29.03778553 C-1.18548447 25.72392146 -1.180011 22.41008317 -1.17275429 19.09622765 C-1.16956376 17.50334557 -1.16759932 15.91046056 -1.16686058 14.31757545 C-1.16470338 12.09814039 -1.15597397 9.8788319 -1.14526367 7.65942383 C-1.14145187 6.39463699 -1.13764008 5.12985016 -1.13371277 3.82673645 C-1 1 -1 1 0 0 Z " fill="#0F6FC6" transform="translate(685,80)"/>
<path d="M0 0 C4.29 0 8.58 0 13 0 C13 19.8 13 39.6 13 60 C12.67 60 12.34 60 12 60 C12 40.86 12 21.72 12 2 C8.37 2 4.74 2 1 2 C0.67 11.57 0.34 21.14 0 31 C-0.33 31 -0.66 31 -1 31 C-1.02465622 26.74585377 -1.04283899 22.49174502 -1.05493164 18.23754883 C-1.05997101 16.78929927 -1.06680253 15.34105483 -1.07543945 13.89282227 C-1.08752247 11.81525412 -1.09323211 9.73775303 -1.09765625 7.66015625 C-1.10289307 6.40855713 -1.10812988 5.15695801 -1.11352539 3.86743164 C-1 1 -1 1 0 0 Z " fill="#1170C7" transform="translate(731,80)"/>
<path d="M0 0 C1 3 1 3 0.109375 4.97265625 C-0.56351562 6.00712891 -0.56351562 6.00712891 -1.25 7.0625 C-1.68828125 7.75472656 -2.1265625 8.44695312 -2.578125 9.16015625 C-5.11310234 12.4403055 -7.78699879 13.33359396 -11.6875 14.125 C-12.49574219 14.29257813 -13.30398438 14.46015625 -14.13671875 14.6328125 C-14.75160156 14.75398437 -15.36648438 14.87515625 -16 15 C-16 16.98 -16 18.96 -16 21 C-14.68 21.33 -13.36 21.66 -12 22 C-13.66611905 22.042721 -15.33382885 22.04063832 -17 22 C-17.33 21.67 -17.66 21.34 -18 21 C-17.9140625 18.96875 -17.9140625 18.96875 -17.625 16.5 C-17.53476562 15.6853125 -17.44453125 14.870625 -17.3515625 14.03125 C-17 12 -17 12 -16 11 C-14.41674949 10.97361249 -12.8333855 10.953896 -11.25 10.9375 C-7.29246998 10.61056951 -7.29246998 10.61056951 -4.26171875 8.2265625 C-3.01665379 6.19185458 -1.95950831 4.18232355 -1 2 C-0.67 1.34 -0.34 0.68 0 0 Z " fill="#1470C8" transform="translate(442,159)"/>
<path d="M0 0 C-1.56583596 4.03721561 -4.44173865 6.47070582 -7.625 9.25 C-8.140625 9.70890625 -8.65625 10.1678125 -9.1875 10.640625 C-10.4534602 11.76592296 -11.72607942 12.88372177 -13 14 C-13.66 13.67 -14.32 13.34 -15 13 C-12.88094537 10.82722286 -10.75527122 8.66173092 -8.625 6.5 C-8.02171875 5.87996094 -7.4184375 5.25992188 -6.796875 4.62109375 C-6.21679688 4.03457031 -5.63671875 3.44804688 -5.0390625 2.84375 C-4.50490723 2.29912109 -3.97075195 1.75449219 -3.42041016 1.19335938 C-2 0 -2 0 0 0 Z " fill="#1A70C7" transform="translate(513,120)"/>
<path d="M0 0 C1.4370809 -0.05422947 2.87475462 -0.09289723 4.3125 -0.125 C5.11300781 -0.14820312 5.91351562 -0.17140625 6.73828125 -0.1953125 C9 0 9 0 12 2 C9.47524538 3.26237731 7.68799534 3.09856404 4.875 3.0625 C3.96492187 3.05347656 3.05484375 3.04445313 2.1171875 3.03515625 C1.41851563 3.02355469 0.71984375 3.01195313 0 3 C0 2.01 0 1.02 0 0 Z " fill="#3382CE" transform="translate(947,101)"/>
<path d="M0 0 C0.66 0 1.32 0 2 0 C2.4125 0.61875 2.825 1.2375 3.25 1.875 C5.51154594 4.62116292 7.62074896 5.09886639 11 6 C11 6.66 11 7.32 11 8 C11.99 8.33 12.98 8.66 14 9 C7.85435306 8.63126118 5.22746623 7.22746623 1 3 C0.67 2.01 0.34 1.02 0 0 Z " fill="#176FC6" transform="translate(369,150)"/>
<path d="M0 0 C0.33 0.99 0.66 1.98 1 3 C-1.31 4.98 -3.62 6.96 -6 9 C-6.66 8.67 -7.32 8.34 -8 8 C-5.36 5.36 -2.72 2.72 0 0 Z " fill="#0F6CC5" transform="translate(100,127)"/>
</svg>
